<?xml version="1.0" encoding="UTF-8"?>
<svg width="34px" height="34px" viewBox="0 0 34 34" version="1.1" xmlns="http://www.w3.org/2000/svg" xmlns:xlink="http://www.w3.org/1999/xlink">
    <title>gear copy</title>
    <g id="gear-copy" stroke="none" stroke-width="1" fill="none" fill-rule="evenodd">
        <g id="f7ef8306e1f768da9b05750dc4b0b0a2" fill="#383A48" fill-rule="nonzero">
            <path d="M24.8802444,5.24571429 C25.6592668,5.76959184 26.3725051,6.36285714 27.0164969,7.01510204 L29.4401222,5.65163265 C30.589613,6.58836735 31.3790224,7.69163265 31.8118126,8.96489796 L29.6824847,10.772449 C29.8832994,11.174898 30.0598778,11.5877551 30.2191446,12.0110204 C30.3887984,12.455102 30.5307536,12.9095918 30.6553971,13.3710204 L33.4356415,13.4057143 C33.9619145,14.7934694 34.096945,16.1465306 33.8372709,17.464898 L31.0985743,17.9644898 C31.0362525,18.8804082 30.8839104,19.7963265 30.6380855,20.7018367 L33.0270876,22.1242857 C32.7916497,23.584898 32.2342159,24.8234694 31.3478615,25.8365306 L28.7268839,24.8963265 C28.2040733,25.6769388 27.6154786,26.3916327 26.9645621,27.0404082 L28.3252546,29.4655102 C27.39389,30.6173469 26.285947,31.4083673 25.0187373,31.8420408 L23.2148676,29.7118367 C22.809776,29.9095918 22.401222,30.09 21.9788187,30.2461224 C21.5321792,30.4161224 21.0820774,30.5583673 20.6215886,30.6797959 L20.5869654,33.4691837 C19.205499,33.9965306 17.8551935,34.1283673 16.5360489,33.8716327 L16.0374745,31.1273469 C15.1268839,31.064898 14.2093686,30.9122449 13.3022403,30.6659184 L11.8861507,33.0597959 C10.4250509,32.8238776 9.18900204,32.2618367 8.17800407,31.3771429 L9.11629328,28.7508163 C8.33727088,28.2304082 7.62403259,27.6371429 6.98004073,26.984898 L4.55641548,28.3518367 C3.41038697,27.415102 2.61751527,26.3083673 2.18472505,25.035102 L4.31059063,23.2310204 C4.11323829,22.8285714 3.93665988,22.4122449 3.77739308,21.9959184 C3.60773931,21.5483673 3.46232179,21.0938776 3.34114053,20.6359184 L0.56089613,20.5977551 C0.0346232179,19.2134694 -0.100407332,17.8604082 0.159266802,16.5420408 L2.89796334,16.042449 C2.96028513,15.13 3.11262729,14.2140816 3.35845214,13.305102 L0.969450102,11.8826531 C1.20488798,10.4185714 1.76578411,9.18346939 2.64867617,8.16693878 L5.26965377,9.10714286 C5.79246436,8.32653061 6.38452138,7.61183673 7.03197556,6.96653061 L5.6712831,4.53795918 C6.60610998,3.38959184 7.70712831,2.59510204 8.97780041,2.16142857 L10.7816701,4.29163265 C11.1867617,4.09387755 11.5953157,3.91693878 12.0177189,3.75734694 C12.4608961,3.58734694 12.9144603,3.44510204 13.3749491,3.32020408 L13.4095723,0.534285714 C14.7910387,0.00693877551 16.1413442,-0.128367347 17.4570265,0.131836735 L17.9556008,2.87612245 C18.8696538,2.93857143 19.7837067,3.09122449 20.6873727,3.33755102 L22.1069246,0.943673469 C23.5645621,1.17959184 24.800611,1.74163265 25.8150713,2.62632653 L24.8802444,5.24571429 L24.8802444,5.24571429 Z M25.7354379,13.7040816 C24.8940937,11.4628571 23.197556,9.54428571 20.8501018,8.47918367 C18.4991853,7.41408163 15.9439919,7.40367347 13.707332,8.24673469 C11.4741344,9.08979592 9.55947047,10.7897959 8.49653768,13.1420408 C7.43360489,15.4942857 7.42321792,18.0546939 8.26456212,20.2993878 C9.10590631,22.5371429 10.7989817,24.4557143 13.1498982,25.5208163 C15.4973523,26.5893878 18.0525458,26.5963265 20.2892057,25.7532653 C22.5258656,24.9136735 24.4405295,23.2136735 25.5,20.8579592 C26.5663951,18.5057143 26.5767821,15.9418367 25.7354379,13.7040816 Z" id="Shape"></path>
        </g>
    </g>
</svg>