<?xml version="1.0" encoding="UTF-8"?>
<svg width="68px" height="68px" viewBox="0 0 68 68" version="1.1" xmlns="http://www.w3.org/2000/svg" xmlns:xlink="http://www.w3.org/1999/xlink">
    <title>f7ef8306e1f768da9b05750dc4b0b0a2</title>
    <g id="Landing-page" stroke="none" stroke-width="1" fill="none" fill-rule="evenodd">
        <g id="gear" fill="#383A48" fill-rule="nonzero">
            <g id="f7ef8306e1f768da9b05750dc4b0b0a2">
                <path d="M49.7604888,10.4700611 C51.3185336,11.5156823 52.7450102,12.6997963 54.0329939,14.0016293 L58.8802444,11.2802444 C61.1792261,13.1498982 62.7580448,15.3519348 63.6236253,17.893279 L59.3649695,21.5010183 C59.7665988,22.304277 60.1197556,23.1283096 60.4382892,23.9731161 C60.7775967,24.8594705 61.0615071,25.7665988 61.3107943,26.6875764 L66.8712831,26.7568228 C67.9238289,29.5266802 68.19389,32.2272912 67.6745418,34.8586558 L62.1971487,35.8558045 C62.0725051,37.6839104 61.7678208,39.5120163 61.2761711,41.3193483 L66.0541752,44.1584521 C65.5832994,47.0737271 64.4684318,49.5458248 62.695723,51.5678208 L57.4537678,49.6912424 C56.4081466,51.2492872 55.2309572,52.6757637 53.9291242,53.9706721 L56.6505092,58.810998 C54.78778,61.1099796 52.5718941,62.6887984 50.0374745,63.5543788 L46.4297352,59.3026477 C45.6195519,59.6973523 44.802444,60.0574338 43.9576375,60.3690428 C43.0643585,60.7083503 42.1641548,60.9922607 41.2431772,61.2346232 L41.1739308,66.8020367 C38.410998,67.8545825 35.710387,68.1177189 33.0720978,67.6052953 L32.0749491,62.1279022 C30.2537678,62.0032587 28.4187373,61.6985743 26.6044807,61.2069246 L23.7723014,65.9849287 C20.8501018,65.514053 18.3780041,64.3922607 16.3560081,62.6264766 L18.2325866,57.3845214 C16.6745418,56.3458248 15.2480652,55.1617108 13.9600815,53.8598778 L9.11283096,56.5881874 C6.82077393,54.7185336 5.23503055,52.5095723 4.3694501,49.9682281 L8.62118126,46.3674134 C8.22647658,45.5641548 7.87331976,44.7331976 7.55478615,43.9022403 C7.21547862,43.0089613 6.92464358,42.101833 6.68228106,41.18778 L1.12179226,41.111609 C0.0692464358,38.3486762 -0.200814664,35.6480652 0.318533605,33.0167006 L5.79592668,32.0195519 C5.92057026,30.1983707 6.22525458,28.3702648 6.71690428,26.5560081 L1.9389002,23.7169043 C2.40977597,20.7947047 3.53156823,18.3295316 5.29735234,16.300611 L10.5393075,18.1771894 C11.5849287,16.6191446 12.7690428,15.192668 14.0639511,13.9046843 L11.3425662,9.05743381 C13.21222,6.76537678 15.4142566,5.1796334 17.9556008,4.31405295 L21.5633401,8.56578411 C22.3735234,8.17107943 23.1906314,7.81792261 24.0354379,7.499389 C24.9217923,7.16008147 25.8289206,6.87617108 26.7498982,6.62688391 L26.8191446,1.06639511 C29.5820774,0.0138492872 32.2826884,-0.256211813 34.914053,0.263136456 L35.9112016,5.74052953 C37.7393075,5.86517312 39.5674134,6.16985743 41.3747454,6.66150713 L44.2138493,1.88350305 C47.1291242,2.35437882 49.601222,3.47617108 51.6301426,5.24195519 L49.7604888,10.4700611 L49.7604888,10.4700611 Z M51.4708758,27.3523422 C49.7881874,22.8790224 46.395112,19.0496945 41.7002037,16.9238289 C36.9983707,14.7979633 31.8879837,14.7771894 27.414664,16.4598778 C22.9482688,18.1425662 19.1189409,21.5356415 16.9930754,26.2305499 C14.8672098,30.9254582 14.8464358,36.0358452 16.5291242,40.5160896 C18.2118126,44.9824847 21.5979633,48.8118126 26.2997963,50.9376782 C30.9947047,53.0704684 36.1050916,53.0843177 40.5784114,51.4016293 C45.0517312,49.7258656 48.8810591,46.3327902 51,41.6309572 C53.1327902,36.9360489 53.1535642,31.8187373 51.4708758,27.3523422 Z" id="Shape"></path>
            </g>
        </g>
    </g>
</svg>