<?xml version="1.0" encoding="UTF-8"?>
<svg width="3800px" height="200px" viewBox="0 0 3800 200" version="1.1" xmlns="http://www.w3.org/2000/svg" xmlns:xlink="http://www.w3.org/1999/xlink">
    <title>spritesheet</title>
    <defs>
        <path d="M0,38.0210564 C24.8287229,13.5494896 51.0265098,0.905022172 78.5933608,0.0876539894 C106.160212,-0.729714196 134.864908,11.9147532 164.70745,38.0210564 C142.244293,64.7430815 114.215583,78.104094 80.6213204,78.104094 C47.0270577,78.104094 20.1532843,64.7430815 0,38.0210564 Z" id="path-1"></path>
        <path d="M0,38.0210564 C24.8287229,13.5494896 51.0265098,0.905022172 78.5933608,0.0876539894 C106.160212,-0.729714196 134.864908,11.9147532 164.70745,38.0210564 C142.244293,64.7430815 114.215583,78.104094 80.6213204,78.104094 C47.0270577,78.104094 20.1532843,64.7430815 0,38.0210564 Z" id="path-3"></path>
        <path d="M0,38.0210564 C24.8287229,13.5494896 51.0265098,0.905022172 78.5933608,0.0876539894 C106.160212,-0.729714196 134.864908,11.9147532 164.70745,38.0210564 C142.244293,64.7430815 114.215583,78.104094 80.6213204,78.104094 C47.0270577,78.104094 20.1532843,64.7430815 0,38.0210564 Z" id="path-5"></path>
        <path d="M0,38.0210564 C24.8287229,13.5494896 51.0265098,0.905022172 78.5933608,0.0876539894 C106.160212,-0.729714196 134.864908,11.9147532 164.70745,38.0210564 C142.244293,64.7430815 114.215583,78.104094 80.6213204,78.104094 C47.0270577,78.104094 20.1532843,64.7430815 0,38.0210564 Z" id="path-7"></path>
        <path d="M0,38.0210564 C24.8287229,13.5494896 51.0265098,0.905022172 78.5933608,0.0876539894 C106.160212,-0.729714196 134.864908,11.9147532 164.70745,38.0210564 C142.244293,64.7430815 114.215583,78.104094 80.6213204,78.104094 C47.0270577,78.104094 20.1532843,64.7430815 0,38.0210564 Z" id="path-9"></path>
        <path d="M0,38.0210564 C24.8287229,13.5494896 51.0265098,0.905022172 78.5933608,0.0876539894 C106.160212,-0.729714196 134.864908,11.9147532 164.70745,38.0210564 C142.244293,64.7430815 114.215583,78.104094 80.6213204,78.104094 C47.0270577,78.104094 20.1532843,64.7430815 0,38.0210564 Z" id="path-11"></path>
        <path d="M6.15499249e-13,13.2720564 C25.2819827,5.52413927 52.6704576,1.21291189 82.1654249,0.338374291 C111.660392,-0.536163312 143.014461,3.77506405 176.22763,13.2720564 C152.193327,41.863108 122.204197,56.1586337 86.2602408,56.1586337 C50.3162848,56.1586337 21.5628713,41.863108 6.15499249e-13,13.2720564 Z" id="path-13"></path>
        <path d="M6.15499249e-13,13.2720564 C25.2819827,5.52413927 52.6704576,1.21291189 82.1654249,0.338374291 C111.660392,-0.536163312 143.014461,3.77506405 176.22763,13.2720564 C152.193327,41.863108 122.204197,56.1586337 86.2602408,56.1586337 C50.3162848,56.1586337 21.5628713,41.863108 6.15499249e-13,13.2720564 Z" id="path-15"></path>
        <path d="M6.15499249e-13,0.0754590275 C25.6037842,5.93370609 52.992259,8.86282961 82.1654249,8.86282961 C111.338591,8.86282961 142.692659,5.93370609 176.22763,0.0754590275 C152.193327,28.6665105 122.204197,42.9620363 86.2602408,42.9620363 C50.3162848,42.9620363 21.5628713,28.6665105 6.15499249e-13,0.0754590275 Z" id="path-17"></path>
        <path d="M6.15499249e-13,0.0754590275 C25.6037842,5.93370609 52.992259,8.86282961 82.1654249,8.86282961 C111.338591,8.86282961 142.692659,5.93370609 176.22763,0.0754590275 C152.193327,28.6665105 122.204197,42.9620363 86.2602408,42.9620363 C50.3162848,42.9620363 21.5628713,28.6665105 6.15499249e-13,0.0754590275 Z" id="path-19"></path>
    </defs>
    <g id="spritesheet" stroke="none" stroke-width="1" fill="none" fill-rule="evenodd">
        <g id="3" transform="translate(611.000000, 43.000000)">
            <path d="M7.61771043,62.6889009 C32.4464334,38.217334 58.6442204,25.5728666 86.2110714,24.7554985 C113.777922,23.9381305 142.482619,36.5825978 172.32516,62.6889009 C149.862003,89.410926 121.833294,102.771939 88.239031,102.771939 C54.6447683,102.771939 27.7709948,89.410926 7.61771043,62.6889009 Z" id="Path-3" stroke="#383A48" stroke-width="6" fill="#FFFFFF" fill-rule="nonzero" stroke-linejoin="round"></path>
            <g id="Clipped" transform="translate(7.617711, 24.667845)">
                <mask id="mask-2" fill="white">
                    <use xlink:href="#path-1"></use>
                </mask>
                <g id="path-1"></g>
                <g id="Group" mask="url(#mask-2)">
                    <g transform="translate(12.306318, 0.632509)">
                        <path d="M29.0954064,16.7614841 C41.1471184,16.7614841 50.9169611,26.531327 50.9169611,38.5830389 C50.9169611,50.6347509 41.1471184,60.4045936 29.0954064,60.4045936 C17.0436945,60.4045936 7.27385159,50.6347509 7.27385159,38.5830389 C7.27385159,26.531327 17.0436945,16.7614841 29.0954064,16.7614841 Z M36.0530035,25.3003534 C32.3850911,25.3003534 29.4116608,28.2737838 29.4116608,31.9416961 C29.4116608,35.6096085 32.3850911,38.5830389 36.0530035,38.5830389 C39.7209159,38.5830389 42.6943463,35.6096085 42.6943463,31.9416961 C42.6943463,28.2737838 39.7209159,25.3003534 36.0530035,25.3003534 Z" id="Combined-Shape" stroke="none" fill="#383A48" fill-rule="evenodd"></path>
                        <circle id="Oval" stroke="#383A48" stroke-width="6" fill="none" cx="38.2667845" cy="38.2667845" r="38.1086572"></circle>
                    </g>
                </g>
            </g>
            <line x1="0.141006017" y1="29.4166355" x2="14.7761269" y2="42.0618375" id="Path-4" stroke="#383A48" stroke-width="6" stroke-linecap="round"></line>
            <line x1="31.3693676" y1="11.637315" x2="41.3659746" y2="27.5910202" id="Path-4-Copy" stroke="#383A48" stroke-width="6" stroke-linecap="round"></line>
            <line x1="164.136042" y1="30.6766784" x2="178.771163" y2="43.3218804" id="Path-4-Copy-5" stroke="#383A48" stroke-width="6" stroke-linecap="round" transform="translate(171.453603, 36.999279) scale(-1, 1) translate(-171.453603, -36.999279) "></line>
            <line x1="139.071118" y1="12.3339223" x2="149.067725" y2="28.2876274" id="Path-4-Copy-4" stroke="#383A48" stroke-width="6" stroke-linecap="round" transform="translate(144.069422, 20.310775) scale(-1, 1) translate(-144.069422, -20.310775) "></line>
            <line x1="70.4914141" y1="0.159488051" x2="74.1962536" y2="17.8512317" id="Path-4-Copy-2" stroke="#383A48" stroke-width="6" stroke-linecap="round"></line>
            <line x1="109.552357" y1="0.159488051" x2="105.855016" y2="16.7429804" id="Path-4-Copy-3" stroke="#383A48" stroke-width="6" stroke-linecap="round"></line>
        </g>
        <g id="2" transform="translate(411.000000, 42.000000)">
            <path d="M7.61771043,63.6889009 C32.4464334,39.217334 58.6442204,26.5728666 86.2110714,25.7554985 C113.777922,24.9381305 142.482619,37.5825978 172.32516,63.6889009 C149.862003,90.410926 121.833294,103.771939 88.239031,103.771939 C54.6447683,103.771939 27.7709948,90.410926 7.61771043,63.6889009 Z" id="Path-3" stroke="#383A48" stroke-width="6" fill="#FFFFFF" fill-rule="nonzero" stroke-linejoin="round"></path>
            <g id="Clipped" transform="translate(7.617711, 25.667845)">
                <mask id="mask-4" fill="white">
                    <use xlink:href="#path-3"></use>
                </mask>
                <g id="path-1"></g>
                <g id="Group" mask="url(#mask-4)">
                    <g transform="translate(25.905258, 0.632509)">
                        <path d="M33.8392226,16.7614841 C45.8909346,16.7614841 55.6607774,26.531327 55.6607774,38.5830389 C55.6607774,50.6347509 45.8909346,60.4045936 33.8392226,60.4045936 C21.7875107,60.4045936 12.0176678,50.6347509 12.0176678,38.5830389 C12.0176678,26.531327 21.7875107,16.7614841 33.8392226,16.7614841 Z M40.7968198,25.3003534 C37.1289074,25.3003534 34.155477,28.2737838 34.155477,31.9416961 C34.155477,35.6096085 37.1289074,38.5830389 40.7968198,38.5830389 C44.4647322,38.5830389 47.4381625,35.6096085 47.4381625,31.9416961 C47.4381625,28.2737838 44.4647322,25.3003534 40.7968198,25.3003534 Z" id="Combined-Shape" stroke="none" fill="#383A48" fill-rule="evenodd"></path>
                        <circle id="Oval" stroke="#383A48" stroke-width="6" fill="none" cx="38.2667845" cy="38.2667845" r="38.1086572"></circle>
                    </g>
                </g>
            </g>
            <line x1="0" y1="30.4460094" x2="14" y2="43.4460094" id="Path-4" stroke="#383A48" stroke-width="6" stroke-linecap="round"></line>
            <line x1="31" y1="12.4460094" x2="41" y2="28.4460094" id="Path-4-Copy" stroke="#383A48" stroke-width="6" stroke-linecap="round"></line>
            <line x1="165" y1="31.4460094" x2="179" y2="44.4460094" id="Path-4-Copy-5" stroke="#383A48" stroke-width="6" stroke-linecap="round" transform="translate(172.000000, 37.946009) scale(-1, 1) translate(-172.000000, -37.946009) "></line>
            <line x1="140" y1="12.4460094" x2="150" y2="28.4460094" id="Path-4-Copy-4" stroke="#383A48" stroke-width="6" stroke-linecap="round" transform="translate(145.000000, 20.446009) scale(-1, 1) translate(-145.000000, -20.446009) "></line>
            <line x1="71" y1="0.44600939" x2="74" y2="18.4460094" id="Path-4-Copy-2" stroke="#383A48" stroke-width="6" stroke-linecap="round"></line>
            <line x1="109" y1="0.44600939" x2="106" y2="17.4460094" id="Path-4-Copy-3" stroke="#383A48" stroke-width="6" stroke-linecap="round"></line>
        </g>
        <g id="2-copy" transform="translate(811.000000, 43.000000)">
            <path d="M7.61771043,62.6889009 C32.4464334,38.217334 58.6442204,25.5728666 86.2110714,24.7554985 C113.777922,23.9381305 142.482619,36.5825978 172.32516,62.6889009 C149.862003,89.410926 121.833294,102.771939 88.239031,102.771939 C54.6447683,102.771939 27.7709948,89.410926 7.61771043,62.6889009 Z" id="Path-3" stroke="#383A48" stroke-width="6" fill="#FFFFFF" fill-rule="nonzero" stroke-linejoin="round"></path>
            <g id="Clipped" transform="translate(7.617711, 24.667845)">
                <mask id="mask-6" fill="white">
                    <use xlink:href="#path-5"></use>
                </mask>
                <g id="path-1"></g>
                <g id="Group" mask="url(#mask-6)">
                    <g transform="translate(25.905258, 0.632509)">
                        <path d="M33.8392226,16.7614841 C45.8909346,16.7614841 55.6607774,26.531327 55.6607774,38.5830389 C55.6607774,50.6347509 45.8909346,60.4045936 33.8392226,60.4045936 C21.7875107,60.4045936 12.0176678,50.6347509 12.0176678,38.5830389 C12.0176678,26.531327 21.7875107,16.7614841 33.8392226,16.7614841 Z M40.7968198,25.3003534 C37.1289074,25.3003534 34.155477,28.2737838 34.155477,31.9416961 C34.155477,35.6096085 37.1289074,38.5830389 40.7968198,38.5830389 C44.4647322,38.5830389 47.4381625,35.6096085 47.4381625,31.9416961 C47.4381625,28.2737838 44.4647322,25.3003534 40.7968198,25.3003534 Z" id="Combined-Shape" stroke="none" fill="#383A48" fill-rule="evenodd"></path>
                        <circle id="Oval" stroke="#383A48" stroke-width="6" fill="none" cx="38.2667845" cy="38.2667845" r="38.1086572"></circle>
                    </g>
                </g>
            </g>
            <line x1="0.141006017" y1="29.4166355" x2="14.7761269" y2="42.0618375" id="Path-4" stroke="#383A48" stroke-width="6" stroke-linecap="round"></line>
            <line x1="31.3693676" y1="11.637315" x2="41.3659746" y2="27.5910202" id="Path-4-Copy" stroke="#383A48" stroke-width="6" stroke-linecap="round"></line>
            <line x1="164.136042" y1="30.6766784" x2="178.771163" y2="43.3218804" id="Path-4-Copy-5" stroke="#383A48" stroke-width="6" stroke-linecap="round" transform="translate(171.453603, 36.999279) scale(-1, 1) translate(-171.453603, -36.999279) "></line>
            <line x1="139.071118" y1="12.3339223" x2="149.067725" y2="28.2876274" id="Path-4-Copy-4" stroke="#383A48" stroke-width="6" stroke-linecap="round" transform="translate(144.069422, 20.310775) scale(-1, 1) translate(-144.069422, -20.310775) "></line>
            <line x1="70.4914141" y1="0.159488051" x2="74.1962536" y2="17.8512317" id="Path-4-Copy-2" stroke="#383A48" stroke-width="6" stroke-linecap="round"></line>
            <line x1="109.552357" y1="0.159488051" x2="105.855016" y2="16.7429804" id="Path-4-Copy-3" stroke="#383A48" stroke-width="6" stroke-linecap="round"></line>
        </g>
        <g id="1" transform="translate(211.000000, 42.000000)">
            <path d="M8,63.8769967 C32.8728232,39.1087319 59.1171421,26.3109602 86.7329569,25.483682 C114.348772,24.6564039 143.104453,37.4541755 173,63.8769967 C150.496945,90.9230052 122.418451,104.446009 88.7645186,104.446009 C55.1105863,104.446009 28.1890802,90.9230052 8,63.8769967 Z" id="Path-3" stroke="#383A48" stroke-width="6" fill="#FFFFFF" fill-rule="nonzero" stroke-linejoin="round"></path>
            <g id="Group" transform="translate(51.000000, 26.446009)">
                <path d="M38.8181818,16.8636364 C50.9433425,16.8636364 60.7727273,26.6930212 60.7727273,38.8181818 C60.7727273,50.9433425 50.9433425,60.7727273 38.8181818,60.7727273 C26.6930212,60.7727273 16.8636364,50.9433425 16.8636364,38.8181818 C16.8636364,26.6930212 26.6930212,16.8636364 38.8181818,16.8636364 Z M45.8181818,25.4545455 C42.1279155,25.4545455 39.1363636,28.4460974 39.1363636,32.1363636 C39.1363636,35.82663 42.1279155,38.8181818 45.8181818,38.8181818 C49.5084482,38.8181818 52.5,35.82663 52.5,32.1363636 C52.5,28.4460974 49.5084482,25.4545455 45.8181818,25.4545455 Z" id="Combined-Shape" fill="#383A48" fill-rule="nonzero"></path>
                <circle id="Oval" stroke="#383A48" stroke-width="6" cx="38.5" cy="38.5" r="38.3409091"></circle>
            </g>
            <line x1="0" y1="30.4460094" x2="14" y2="43.4460094" id="Path-4" stroke="#383A48" stroke-width="6" stroke-linecap="round"></line>
            <line x1="31" y1="12.4460094" x2="41" y2="28.4460094" id="Path-4-Copy" stroke="#383A48" stroke-width="6" stroke-linecap="round"></line>
            <line x1="165" y1="31.4460094" x2="179" y2="44.4460094" id="Path-4-Copy-5" stroke="#383A48" stroke-width="6" stroke-linecap="round" transform="translate(172.000000, 37.946009) scale(-1, 1) translate(-172.000000, -37.946009) "></line>
            <line x1="140" y1="12.4460094" x2="150" y2="28.4460094" id="Path-4-Copy-4" stroke="#383A48" stroke-width="6" stroke-linecap="round" transform="translate(145.000000, 20.446009) scale(-1, 1) translate(-145.000000, -20.446009) "></line>
            <line x1="71" y1="0.44600939" x2="74" y2="18.4460094" id="Path-4-Copy-2" stroke="#383A48" stroke-width="6" stroke-linecap="round"></line>
            <line x1="109" y1="0.44600939" x2="106" y2="17.4460094" id="Path-4-Copy-3" stroke="#383A48" stroke-width="6" stroke-linecap="round"></line>
        </g>
        <g id="1-copy" transform="translate(1011.000000, 42.000000)">
            <path d="M8,63.8769967 C32.8728232,39.1087319 59.1171421,26.3109602 86.7329569,25.483682 C114.348772,24.6564039 143.104453,37.4541755 173,63.8769967 C150.496945,90.9230052 122.418451,104.446009 88.7645186,104.446009 C55.1105863,104.446009 28.1890802,90.9230052 8,63.8769967 Z" id="Path-3" stroke="#383A48" stroke-width="6" fill="#FFFFFF" fill-rule="nonzero" stroke-linejoin="round"></path>
            <g id="Group" transform="translate(51.000000, 26.446009)">
                <path d="M38.8181818,16.8636364 C50.9433425,16.8636364 60.7727273,26.6930212 60.7727273,38.8181818 C60.7727273,50.9433425 50.9433425,60.7727273 38.8181818,60.7727273 C26.6930212,60.7727273 16.8636364,50.9433425 16.8636364,38.8181818 C16.8636364,26.6930212 26.6930212,16.8636364 38.8181818,16.8636364 Z M45.8181818,25.4545455 C42.1279155,25.4545455 39.1363636,28.4460974 39.1363636,32.1363636 C39.1363636,35.82663 42.1279155,38.8181818 45.8181818,38.8181818 C49.5084482,38.8181818 52.5,35.82663 52.5,32.1363636 C52.5,28.4460974 49.5084482,25.4545455 45.8181818,25.4545455 Z" id="Combined-Shape" fill="#383A48" fill-rule="nonzero"></path>
                <circle id="Oval" stroke="#383A48" stroke-width="6" cx="38.5" cy="38.5" r="38.3409091"></circle>
            </g>
            <line x1="0" y1="30.4460094" x2="14" y2="43.4460094" id="Path-4" stroke="#383A48" stroke-width="6" stroke-linecap="round"></line>
            <line x1="31" y1="12.4460094" x2="41" y2="28.4460094" id="Path-4-Copy" stroke="#383A48" stroke-width="6" stroke-linecap="round"></line>
            <line x1="165" y1="31.4460094" x2="179" y2="44.4460094" id="Path-4-Copy-5" stroke="#383A48" stroke-width="6" stroke-linecap="round" transform="translate(172.000000, 37.946009) scale(-1, 1) translate(-172.000000, -37.946009) "></line>
            <line x1="140" y1="12.4460094" x2="150" y2="28.4460094" id="Path-4-Copy-4" stroke="#383A48" stroke-width="6" stroke-linecap="round" transform="translate(145.000000, 20.446009) scale(-1, 1) translate(-145.000000, -20.446009) "></line>
            <line x1="71" y1="0.44600939" x2="74" y2="18.4460094" id="Path-4-Copy-2" stroke="#383A48" stroke-width="6" stroke-linecap="round"></line>
            <line x1="109" y1="0.44600939" x2="106" y2="17.4460094" id="Path-4-Copy-3" stroke="#383A48" stroke-width="6" stroke-linecap="round"></line>
        </g>
        <g id="1-copy-2" transform="translate(1211.000000, 42.000000)">
            <path d="M8,63.8769967 C32.8728232,39.1087319 59.1171421,26.3109602 86.7329569,25.483682 C114.348772,24.6564039 143.104453,37.4541755 173,63.8769967 C150.496945,90.9230052 122.418451,104.446009 88.7645186,104.446009 C55.1105863,104.446009 28.1890802,90.9230052 8,63.8769967 Z" id="Path-3" stroke="#383A48" stroke-width="6" fill="#FFFFFF" fill-rule="nonzero" stroke-linejoin="round"></path>
            <g id="Group" transform="translate(51.000000, 26.446009)">
                <path d="M38.8181818,16.8636364 C50.9433425,16.8636364 60.7727273,26.6930212 60.7727273,38.8181818 C60.7727273,50.9433425 50.9433425,60.7727273 38.8181818,60.7727273 C26.6930212,60.7727273 16.8636364,50.9433425 16.8636364,38.8181818 C16.8636364,26.6930212 26.6930212,16.8636364 38.8181818,16.8636364 Z M45.8181818,25.4545455 C42.1279155,25.4545455 39.1363636,28.4460974 39.1363636,32.1363636 C39.1363636,35.82663 42.1279155,38.8181818 45.8181818,38.8181818 C49.5084482,38.8181818 52.5,35.82663 52.5,32.1363636 C52.5,28.4460974 49.5084482,25.4545455 45.8181818,25.4545455 Z" id="Combined-Shape" fill="#383A48" fill-rule="nonzero"></path>
                <circle id="Oval" stroke="#383A48" stroke-width="6" cx="38.5" cy="38.5" r="38.3409091"></circle>
            </g>
            <line x1="0" y1="30.4460094" x2="14" y2="43.4460094" id="Path-4" stroke="#383A48" stroke-width="6" stroke-linecap="round"></line>
            <line x1="31" y1="12.4460094" x2="41" y2="28.4460094" id="Path-4-Copy" stroke="#383A48" stroke-width="6" stroke-linecap="round"></line>
            <line x1="165" y1="31.4460094" x2="179" y2="44.4460094" id="Path-4-Copy-5" stroke="#383A48" stroke-width="6" stroke-linecap="round" transform="translate(172.000000, 37.946009) scale(-1, 1) translate(-172.000000, -37.946009) "></line>
            <line x1="140" y1="12.4460094" x2="150" y2="28.4460094" id="Path-4-Copy-4" stroke="#383A48" stroke-width="6" stroke-linecap="round" transform="translate(145.000000, 20.446009) scale(-1, 1) translate(-145.000000, -20.446009) "></line>
            <line x1="71" y1="0.44600939" x2="74" y2="18.4460094" id="Path-4-Copy-2" stroke="#383A48" stroke-width="6" stroke-linecap="round"></line>
            <line x1="109" y1="0.44600939" x2="106" y2="17.4460094" id="Path-4-Copy-3" stroke="#383A48" stroke-width="6" stroke-linecap="round"></line>
        </g>
        <g id="1-copy-3" transform="translate(2011.000000, 42.000000)">
            <path d="M8,63.8769967 C32.8728232,39.1087319 59.1171421,26.3109602 86.7329569,25.483682 C114.348772,24.6564039 143.104453,37.4541755 173,63.8769967 C150.496945,90.9230052 122.418451,104.446009 88.7645186,104.446009 C55.1105863,104.446009 28.1890802,90.9230052 8,63.8769967 Z" id="Path-3" stroke="#383A48" stroke-width="6" fill="#FFFFFF" fill-rule="nonzero" stroke-linejoin="round"></path>
            <g id="Group" transform="translate(51.000000, 26.446009)">
                <path d="M38.8181818,16.8636364 C50.9433425,16.8636364 60.7727273,26.6930212 60.7727273,38.8181818 C60.7727273,50.9433425 50.9433425,60.7727273 38.8181818,60.7727273 C26.6930212,60.7727273 16.8636364,50.9433425 16.8636364,38.8181818 C16.8636364,26.6930212 26.6930212,16.8636364 38.8181818,16.8636364 Z M45.8181818,25.4545455 C42.1279155,25.4545455 39.1363636,28.4460974 39.1363636,32.1363636 C39.1363636,35.82663 42.1279155,38.8181818 45.8181818,38.8181818 C49.5084482,38.8181818 52.5,35.82663 52.5,32.1363636 C52.5,28.4460974 49.5084482,25.4545455 45.8181818,25.4545455 Z" id="Combined-Shape" fill="#383A48" fill-rule="nonzero"></path>
                <circle id="Oval" stroke="#383A48" stroke-width="6" cx="38.5" cy="38.5" r="38.3409091"></circle>
            </g>
            <line x1="0" y1="30.4460094" x2="14" y2="43.4460094" id="Path-4" stroke="#383A48" stroke-width="6" stroke-linecap="round"></line>
            <line x1="31" y1="12.4460094" x2="41" y2="28.4460094" id="Path-4-Copy" stroke="#383A48" stroke-width="6" stroke-linecap="round"></line>
            <line x1="165" y1="31.4460094" x2="179" y2="44.4460094" id="Path-4-Copy-5" stroke="#383A48" stroke-width="6" stroke-linecap="round" transform="translate(172.000000, 37.946009) scale(-1, 1) translate(-172.000000, -37.946009) "></line>
            <line x1="140" y1="12.4460094" x2="150" y2="28.4460094" id="Path-4-Copy-4" stroke="#383A48" stroke-width="6" stroke-linecap="round" transform="translate(145.000000, 20.446009) scale(-1, 1) translate(-145.000000, -20.446009) "></line>
            <line x1="71" y1="0.44600939" x2="74" y2="18.4460094" id="Path-4-Copy-2" stroke="#383A48" stroke-width="6" stroke-linecap="round"></line>
            <line x1="109" y1="0.44600939" x2="106" y2="17.4460094" id="Path-4-Copy-3" stroke="#383A48" stroke-width="6" stroke-linecap="round"></line>
        </g>
        <g id="1-copy-4" transform="translate(2211.000000, 42.000000)">
            <path d="M8,63.8769967 C32.8728232,39.1087319 59.1171421,26.3109602 86.7329569,25.483682 C114.348772,24.6564039 143.104453,37.4541755 173,63.8769967 C150.496945,90.9230052 122.418451,104.446009 88.7645186,104.446009 C55.1105863,104.446009 28.1890802,90.9230052 8,63.8769967 Z" id="Path-3" stroke="#383A48" stroke-width="6" fill="#FFFFFF" fill-rule="nonzero" stroke-linejoin="round"></path>
            <g id="Group" transform="translate(51.000000, 26.446009)">
                <path d="M38.8181818,16.8636364 C50.9433425,16.8636364 60.7727273,26.6930212 60.7727273,38.8181818 C60.7727273,50.9433425 50.9433425,60.7727273 38.8181818,60.7727273 C26.6930212,60.7727273 16.8636364,50.9433425 16.8636364,38.8181818 C16.8636364,26.6930212 26.6930212,16.8636364 38.8181818,16.8636364 Z M45.8181818,25.4545455 C42.1279155,25.4545455 39.1363636,28.4460974 39.1363636,32.1363636 C39.1363636,35.82663 42.1279155,38.8181818 45.8181818,38.8181818 C49.5084482,38.8181818 52.5,35.82663 52.5,32.1363636 C52.5,28.4460974 49.5084482,25.4545455 45.8181818,25.4545455 Z" id="Combined-Shape" fill="#383A48" fill-rule="nonzero"></path>
                <circle id="Oval" stroke="#383A48" stroke-width="6" cx="38.5" cy="38.5" r="38.3409091"></circle>
            </g>
            <line x1="0" y1="30.4460094" x2="14" y2="43.4460094" id="Path-4" stroke="#383A48" stroke-width="6" stroke-linecap="round"></line>
            <line x1="31" y1="12.4460094" x2="41" y2="28.4460094" id="Path-4-Copy" stroke="#383A48" stroke-width="6" stroke-linecap="round"></line>
            <line x1="165" y1="31.4460094" x2="179" y2="44.4460094" id="Path-4-Copy-5" stroke="#383A48" stroke-width="6" stroke-linecap="round" transform="translate(172.000000, 37.946009) scale(-1, 1) translate(-172.000000, -37.946009) "></line>
            <line x1="140" y1="12.4460094" x2="150" y2="28.4460094" id="Path-4-Copy-4" stroke="#383A48" stroke-width="6" stroke-linecap="round" transform="translate(145.000000, 20.446009) scale(-1, 1) translate(-145.000000, -20.446009) "></line>
            <line x1="71" y1="0.44600939" x2="74" y2="18.4460094" id="Path-4-Copy-2" stroke="#383A48" stroke-width="6" stroke-linecap="round"></line>
            <line x1="109" y1="0.44600939" x2="106" y2="17.4460094" id="Path-4-Copy-3" stroke="#383A48" stroke-width="6" stroke-linecap="round"></line>
        </g>
        <g id="1-copy-5" transform="translate(3411.000000, 42.000000)">
            <path d="M8,63.8769967 C32.8728232,39.1087319 59.1171421,26.3109602 86.7329569,25.483682 C114.348772,24.6564039 143.104453,37.4541755 173,63.8769967 C150.496945,90.9230052 122.418451,104.446009 88.7645186,104.446009 C55.1105863,104.446009 28.1890802,90.9230052 8,63.8769967 Z" id="Path-3" stroke="#383A48" stroke-width="6" fill="#FFFFFF" fill-rule="nonzero" stroke-linejoin="round"></path>
            <g id="Group" transform="translate(51.000000, 26.446009)">
                <path d="M38.8181818,16.8636364 C50.9433425,16.8636364 60.7727273,26.6930212 60.7727273,38.8181818 C60.7727273,50.9433425 50.9433425,60.7727273 38.8181818,60.7727273 C26.6930212,60.7727273 16.8636364,50.9433425 16.8636364,38.8181818 C16.8636364,26.6930212 26.6930212,16.8636364 38.8181818,16.8636364 Z M45.8181818,25.4545455 C42.1279155,25.4545455 39.1363636,28.4460974 39.1363636,32.1363636 C39.1363636,35.82663 42.1279155,38.8181818 45.8181818,38.8181818 C49.5084482,38.8181818 52.5,35.82663 52.5,32.1363636 C52.5,28.4460974 49.5084482,25.4545455 45.8181818,25.4545455 Z" id="Combined-Shape" fill="#383A48" fill-rule="nonzero"></path>
                <circle id="Oval" stroke="#383A48" stroke-width="6" cx="38.5" cy="38.5" r="38.3409091"></circle>
            </g>
            <line x1="0" y1="30.4460094" x2="14" y2="43.4460094" id="Path-4" stroke="#383A48" stroke-width="6" stroke-linecap="round"></line>
            <line x1="31" y1="12.4460094" x2="41" y2="28.4460094" id="Path-4-Copy" stroke="#383A48" stroke-width="6" stroke-linecap="round"></line>
            <line x1="165" y1="31.4460094" x2="179" y2="44.4460094" id="Path-4-Copy-5" stroke="#383A48" stroke-width="6" stroke-linecap="round" transform="translate(172.000000, 37.946009) scale(-1, 1) translate(-172.000000, -37.946009) "></line>
            <line x1="140" y1="12.4460094" x2="150" y2="28.4460094" id="Path-4-Copy-4" stroke="#383A48" stroke-width="6" stroke-linecap="round" transform="translate(145.000000, 20.446009) scale(-1, 1) translate(-145.000000, -20.446009) "></line>
            <line x1="71" y1="0.44600939" x2="74" y2="18.4460094" id="Path-4-Copy-2" stroke="#383A48" stroke-width="6" stroke-linecap="round"></line>
            <line x1="109" y1="0.44600939" x2="106" y2="17.4460094" id="Path-4-Copy-3" stroke="#383A48" stroke-width="6" stroke-linecap="round"></line>
        </g>
        <g id="1-copy-6" transform="translate(3611.000000, 42.000000)">
            <path d="M8,63.8769967 C32.8728232,39.1087319 59.1171421,26.3109602 86.7329569,25.483682 C114.348772,24.6564039 143.104453,37.4541755 173,63.8769967 C150.496945,90.9230052 122.418451,104.446009 88.7645186,104.446009 C55.1105863,104.446009 28.1890802,90.9230052 8,63.8769967 Z" id="Path-3" stroke="#383A48" stroke-width="6" fill="#FFFFFF" fill-rule="nonzero" stroke-linejoin="round"></path>
            <g id="Group" transform="translate(51.000000, 26.446009)">
                <path d="M38.8181818,16.8636364 C50.9433425,16.8636364 60.7727273,26.6930212 60.7727273,38.8181818 C60.7727273,50.9433425 50.9433425,60.7727273 38.8181818,60.7727273 C26.6930212,60.7727273 16.8636364,50.9433425 16.8636364,38.8181818 C16.8636364,26.6930212 26.6930212,16.8636364 38.8181818,16.8636364 Z M45.8181818,25.4545455 C42.1279155,25.4545455 39.1363636,28.4460974 39.1363636,32.1363636 C39.1363636,35.82663 42.1279155,38.8181818 45.8181818,38.8181818 C49.5084482,38.8181818 52.5,35.82663 52.5,32.1363636 C52.5,28.4460974 49.5084482,25.4545455 45.8181818,25.4545455 Z" id="Combined-Shape" fill="#383A48" fill-rule="nonzero"></path>
                <circle id="Oval" stroke="#383A48" stroke-width="6" cx="38.5" cy="38.5" r="38.3409091"></circle>
            </g>
            <line x1="0" y1="30.4460094" x2="14" y2="43.4460094" id="Path-4" stroke="#383A48" stroke-width="6" stroke-linecap="round"></line>
            <line x1="31" y1="12.4460094" x2="41" y2="28.4460094" id="Path-4-Copy" stroke="#383A48" stroke-width="6" stroke-linecap="round"></line>
            <line x1="165" y1="31.4460094" x2="179" y2="44.4460094" id="Path-4-Copy-5" stroke="#383A48" stroke-width="6" stroke-linecap="round" transform="translate(172.000000, 37.946009) scale(-1, 1) translate(-172.000000, -37.946009) "></line>
            <line x1="140" y1="12.4460094" x2="150" y2="28.4460094" id="Path-4-Copy-4" stroke="#383A48" stroke-width="6" stroke-linecap="round" transform="translate(145.000000, 20.446009) scale(-1, 1) translate(-145.000000, -20.446009) "></line>
            <line x1="71" y1="0.44600939" x2="74" y2="18.4460094" id="Path-4-Copy-2" stroke="#383A48" stroke-width="6" stroke-linecap="round"></line>
            <line x1="109" y1="0.44600939" x2="106" y2="17.4460094" id="Path-4-Copy-3" stroke="#383A48" stroke-width="6" stroke-linecap="round"></line>
        </g>
        <g id="6" transform="translate(1411.000000, 43.000000)">
            <path d="M7.61771043,62.6889009 C32.4464334,38.217334 58.6442204,25.5728666 86.2110714,24.7554985 C113.777922,23.9381305 142.482619,36.5825978 172.32516,62.6889009 C149.862003,89.410926 121.833294,102.771939 88.239031,102.771939 C54.6447683,102.771939 27.7709948,89.410926 7.61771043,62.6889009 Z" id="Path-3" stroke="#383A48" stroke-width="6" fill="#FFFFFF" fill-rule="nonzero" stroke-linejoin="round"></path>
            <g id="Clipped" transform="translate(7.617711, 24.667845)">
                <mask id="mask-8" fill="white">
                    <use xlink:href="#path-7"></use>
                </mask>
                <g id="path-1"></g>
                <g id="Group" mask="url(#mask-8)">
                    <g transform="translate(65.437060, 0.632509)">
                        <path d="M44.9081272,16.7614841 C56.9598392,16.7614841 66.729682,26.531327 66.729682,38.5830389 C66.729682,50.6347509 56.9598392,60.4045936 44.9081272,60.4045936 C32.8564152,60.4045936 23.0865724,50.6347509 23.0865724,38.5830389 C23.0865724,26.531327 32.8564152,16.7614841 44.9081272,16.7614841 Z M51.8657244,25.3003534 C48.197812,25.3003534 45.2243816,28.2737838 45.2243816,31.9416961 C45.2243816,35.6096085 48.197812,38.5830389 51.8657244,38.5830389 C55.5336368,38.5830389 58.5070671,35.6096085 58.5070671,31.9416961 C58.5070671,28.2737838 55.5336368,25.3003534 51.8657244,25.3003534 Z" id="Combined-Shape" stroke="none" fill="#383A48" fill-rule="evenodd"></path>
                        <circle id="Oval" stroke="#383A48" stroke-width="6" fill="none" cx="38.2667845" cy="38.2667845" r="38.1086572"></circle>
                    </g>
                </g>
            </g>
            <line x1="0.141006017" y1="29.4166355" x2="14.7761269" y2="42.0618375" id="Path-4" stroke="#383A48" stroke-width="6" stroke-linecap="round"></line>
            <line x1="31.3693676" y1="11.637315" x2="41.3659746" y2="27.5910202" id="Path-4-Copy" stroke="#383A48" stroke-width="6" stroke-linecap="round"></line>
            <line x1="164.136042" y1="30.6766784" x2="178.771163" y2="43.3218804" id="Path-4-Copy-5" stroke="#383A48" stroke-width="6" stroke-linecap="round" transform="translate(171.453603, 36.999279) scale(-1, 1) translate(-171.453603, -36.999279) "></line>
            <line x1="139.071118" y1="12.3339223" x2="149.067725" y2="28.2876274" id="Path-4-Copy-4" stroke="#383A48" stroke-width="6" stroke-linecap="round" transform="translate(144.069422, 20.310775) scale(-1, 1) translate(-144.069422, -20.310775) "></line>
            <line x1="70.4914141" y1="0.159488051" x2="74.1962536" y2="17.8512317" id="Path-4-Copy-2" stroke="#383A48" stroke-width="6" stroke-linecap="round"></line>
            <line x1="109.552357" y1="0.159488051" x2="105.855016" y2="16.7429804" id="Path-4-Copy-3" stroke="#383A48" stroke-width="6" stroke-linecap="round"></line>
        </g>
        <g id="7" transform="translate(1611.000000, 43.000000)">
            <path d="M7.61771043,62.6889009 C32.4464334,38.217334 58.6442204,25.5728666 86.2110714,24.7554985 C113.777922,23.9381305 142.482619,36.5825978 172.32516,62.6889009 C149.862003,89.410926 121.833294,102.771939 88.239031,102.771939 C54.6447683,102.771939 27.7709948,89.410926 7.61771043,62.6889009 Z" id="Path-3" stroke="#383A48" stroke-width="6" fill="#FFFFFF" fill-rule="nonzero" stroke-linejoin="round"></path>
            <g id="Clipped" transform="translate(7.617711, 24.667845)">
                <mask id="mask-10" fill="white">
                    <use xlink:href="#path-9"></use>
                </mask>
                <g id="path-1"></g>
                <g id="Group" mask="url(#mask-10)">
                    <g transform="translate(74.924692, 0.632509)">
                        <path d="M48.0706714,16.7614841 C60.1223834,16.7614841 69.8922261,26.531327 69.8922261,38.5830389 C69.8922261,50.6347509 60.1223834,60.4045936 48.0706714,60.4045936 C36.0189594,60.4045936 26.2491166,50.6347509 26.2491166,38.5830389 C26.2491166,26.531327 36.0189594,16.7614841 48.0706714,16.7614841 Z M55.0282686,25.3003534 C51.3603561,25.3003534 48.3869258,28.2737838 48.3869258,31.9416961 C48.3869258,35.6096085 51.3603561,38.5830389 55.0282686,38.5830389 C58.696181,38.5830389 61.6696113,35.6096085 61.6696113,31.9416961 C61.6696113,28.2737838 58.696181,25.3003534 55.0282686,25.3003534 Z" id="Combined-Shape" stroke="none" fill="#383A48" fill-rule="evenodd"></path>
                        <circle id="Oval" stroke="#383A48" stroke-width="6" fill="none" cx="38.2667845" cy="38.2667845" r="38.1086572"></circle>
                    </g>
                </g>
            </g>
            <line x1="0.141006017" y1="29.4166355" x2="14.7761269" y2="42.0618375" id="Path-4" stroke="#383A48" stroke-width="6" stroke-linecap="round"></line>
            <line x1="31.3693676" y1="11.637315" x2="41.3659746" y2="27.5910202" id="Path-4-Copy" stroke="#383A48" stroke-width="6" stroke-linecap="round"></line>
            <line x1="164.136042" y1="30.6766784" x2="178.771163" y2="43.3218804" id="Path-4-Copy-5" stroke="#383A48" stroke-width="6" stroke-linecap="round" transform="translate(171.453603, 36.999279) scale(-1, 1) translate(-171.453603, -36.999279) "></line>
            <line x1="139.071118" y1="12.3339223" x2="149.067725" y2="28.2876274" id="Path-4-Copy-4" stroke="#383A48" stroke-width="6" stroke-linecap="round" transform="translate(144.069422, 20.310775) scale(-1, 1) translate(-144.069422, -20.310775) "></line>
            <line x1="70.4914141" y1="0.159488051" x2="74.1962536" y2="17.8512317" id="Path-4-Copy-2" stroke="#383A48" stroke-width="6" stroke-linecap="round"></line>
            <line x1="109.552357" y1="0.159488051" x2="105.855016" y2="16.7429804" id="Path-4-Copy-3" stroke="#383A48" stroke-width="6" stroke-linecap="round"></line>
        </g>
        <g id="8" transform="translate(1811.000000, 43.000000)">
            <path d="M7.61771043,62.6889009 C32.4464334,38.217334 58.6442204,25.5728666 86.2110714,24.7554985 C113.777922,23.9381305 142.482619,36.5825978 172.32516,62.6889009 C149.862003,89.410926 121.833294,102.771939 88.239031,102.771939 C54.6447683,102.771939 27.7709948,89.410926 7.61771043,62.6889009 Z" id="Path-3" stroke="#383A48" stroke-width="6" fill="#FFFFFF" fill-rule="nonzero" stroke-linejoin="round"></path>
            <g id="Clipped" transform="translate(7.617711, 24.667845)">
                <mask id="mask-12" fill="white">
                    <use xlink:href="#path-11"></use>
                </mask>
                <g id="path-1"></g>
                <g id="Group" mask="url(#mask-12)">
                    <g transform="translate(65.437060, 0.632509)">
                        <path d="M44.9081272,16.7614841 C56.9598392,16.7614841 66.729682,26.531327 66.729682,38.5830389 C66.729682,50.6347509 56.9598392,60.4045936 44.9081272,60.4045936 C32.8564152,60.4045936 23.0865724,50.6347509 23.0865724,38.5830389 C23.0865724,26.531327 32.8564152,16.7614841 44.9081272,16.7614841 Z M51.8657244,25.3003534 C48.197812,25.3003534 45.2243816,28.2737838 45.2243816,31.9416961 C45.2243816,35.6096085 48.197812,38.5830389 51.8657244,38.5830389 C55.5336368,38.5830389 58.5070671,35.6096085 58.5070671,31.9416961 C58.5070671,28.2737838 55.5336368,25.3003534 51.8657244,25.3003534 Z" id="Combined-Shape" stroke="none" fill="#383A48" fill-rule="evenodd"></path>
                        <circle id="Oval" stroke="#383A48" stroke-width="6" fill="none" cx="38.2667845" cy="38.2667845" r="38.1086572"></circle>
                    </g>
                </g>
            </g>
            <line x1="0.141006017" y1="29.4166355" x2="14.7761269" y2="42.0618375" id="Path-4" stroke="#383A48" stroke-width="6" stroke-linecap="round"></line>
            <line x1="31.3693676" y1="11.637315" x2="41.3659746" y2="27.5910202" id="Path-4-Copy" stroke="#383A48" stroke-width="6" stroke-linecap="round"></line>
            <line x1="164.136042" y1="30.6766784" x2="178.771163" y2="43.3218804" id="Path-4-Copy-5" stroke="#383A48" stroke-width="6" stroke-linecap="round" transform="translate(171.453603, 36.999279) scale(-1, 1) translate(-171.453603, -36.999279) "></line>
            <line x1="139.071118" y1="12.3339223" x2="149.067725" y2="28.2876274" id="Path-4-Copy-4" stroke="#383A48" stroke-width="6" stroke-linecap="round" transform="translate(144.069422, 20.310775) scale(-1, 1) translate(-144.069422, -20.310775) "></line>
            <line x1="70.4914141" y1="0.159488051" x2="74.1962536" y2="17.8512317" id="Path-4-Copy-2" stroke="#383A48" stroke-width="6" stroke-linecap="round"></line>
            <line x1="109.552357" y1="0.159488051" x2="105.855016" y2="16.7429804" id="Path-4-Copy-3" stroke="#383A48" stroke-width="6" stroke-linecap="round"></line>
        </g>
        <g id="1" transform="translate(11.000000, 42.000000)">
            <path d="M8,63.8769967 C32.8728232,39.1087319 59.1171421,26.3109602 86.7329569,25.483682 C114.348772,24.6564039 143.104453,37.4541755 173,63.8769967 C150.496945,90.9230052 122.418451,104.446009 88.7645186,104.446009 C55.1105863,104.446009 28.1890802,90.9230052 8,63.8769967 Z" id="Path-3" stroke="#383A48" stroke-width="6" fill="#FFFFFF" fill-rule="nonzero" stroke-linejoin="round"></path>
            <g id="Group" transform="translate(51.000000, 26.446009)">
                <path d="M38.8181818,16.8636364 C50.9433425,16.8636364 60.7727273,26.6930212 60.7727273,38.8181818 C60.7727273,50.9433425 50.9433425,60.7727273 38.8181818,60.7727273 C26.6930212,60.7727273 16.8636364,50.9433425 16.8636364,38.8181818 C16.8636364,26.6930212 26.6930212,16.8636364 38.8181818,16.8636364 Z M45.8181818,25.4545455 C42.1279155,25.4545455 39.1363636,28.4460974 39.1363636,32.1363636 C39.1363636,35.82663 42.1279155,38.8181818 45.8181818,38.8181818 C49.5084482,38.8181818 52.5,35.82663 52.5,32.1363636 C52.5,28.4460974 49.5084482,25.4545455 45.8181818,25.4545455 Z" id="Combined-Shape" fill="#383A48" fill-rule="nonzero"></path>
                <circle id="Oval" stroke="#383A48" stroke-width="6" cx="38.5" cy="38.5" r="38.3409091"></circle>
            </g>
            <line x1="0" y1="30.4460094" x2="14" y2="43.4460094" id="Path-4" stroke="#383A48" stroke-width="6" stroke-linecap="round"></line>
            <line x1="31" y1="12.4460094" x2="41" y2="28.4460094" id="Path-4-Copy" stroke="#383A48" stroke-width="6" stroke-linecap="round"></line>
            <line x1="165" y1="31.4460094" x2="179" y2="44.4460094" id="Path-4-Copy-5" stroke="#383A48" stroke-width="6" stroke-linecap="round" transform="translate(172.000000, 37.946009) scale(-1, 1) translate(-172.000000, -37.946009) "></line>
            <line x1="140" y1="12.4460094" x2="150" y2="28.4460094" id="Path-4-Copy-4" stroke="#383A48" stroke-width="6" stroke-linecap="round" transform="translate(145.000000, 20.446009) scale(-1, 1) translate(-145.000000, -20.446009) "></line>
            <line x1="71" y1="0.44600939" x2="74" y2="18.4460094" id="Path-4-Copy-2" stroke="#383A48" stroke-width="6" stroke-linecap="round"></line>
            <line x1="109" y1="0.44600939" x2="106" y2="17.4460094" id="Path-4-Copy-3" stroke="#383A48" stroke-width="6" stroke-linecap="round"></line>
        </g>
        <g id="10" transform="translate(2411.000000, 78.000000)">
            <path d="M2.39815521,29.5140225 C27.680138,21.7661053 55.068613,17.4548778 84.5635803,16.5803403 C114.058548,15.7058028 145.412616,20.01703 178.625786,29.5140225 C154.591482,58.1050739 124.602352,72.4005997 88.6583961,72.4005997 C52.7144402,72.4005997 23.9610266,58.1050739 2.39815521,29.5140225 Z" id="Path-3" stroke="#383A48" stroke-width="6" fill="#FFFFFF" fill-rule="nonzero" stroke-linejoin="round"></path>
            <g id="Clipped" transform="translate(2.398155, 16.241966)">
                <mask id="mask-14" fill="white">
                    <use xlink:href="#path-13"></use>
                </mask>
                <g id="path-1"></g>
                <g id="Group" mask="url(#mask-14)">
                    <g transform="translate(46.327743, -26.731569)">
                        <path d="M41.2816635,17.9338374 C54.1763119,17.9338374 64.6294896,28.3870152 64.6294896,41.2816635 C64.6294896,54.1763119 54.1763119,64.6294896 41.2816635,64.6294896 C28.3870152,64.6294896 17.9338374,54.1763119 17.9338374,41.2816635 C17.9338374,28.3870152 28.3870152,17.9338374 41.2816635,17.9338374 Z M48.7258979,27.0699433 C44.8014397,27.0699433 41.6200378,30.2513452 41.6200378,34.1758034 C41.6200378,38.1002617 44.8014397,41.2816635 48.7258979,41.2816635 C52.6503562,41.2816635 55.831758,38.1002617 55.831758,34.1758034 C55.831758,30.2513452 52.6503562,27.0699433 48.7258979,27.0699433 Z" id="Combined-Shape" stroke="none" fill="#383A48" fill-rule="evenodd"></path>
                        <circle id="Oval" stroke="#383A48" stroke-width="6" fill="none" cx="40.9432892" cy="40.9432892" r="40.7741021"></circle>
                    </g>
                </g>
            </g>
            <line x1="0" y1="12.1814745" x2="5.12617466" y2="20.2944735" id="Path-4" stroke="#383A48" stroke-width="6" stroke-linecap="round"></line>
            <line x1="35.8676749" y1="4.73724008" x2="38.7086982" y2="13.27202" id="Path-4-Copy" stroke="#383A48" stroke-width="6" stroke-linecap="round"></line>
            <line x1="174.26276" y1="13.1965974" x2="178.654839" y2="19.9614219" id="Path-4-Copy-5" stroke="#383A48" stroke-width="6" stroke-linecap="round" transform="translate(176.458799, 16.579010) scale(-1, 1) translate(-176.458799, -16.579010) "></line>
            <line x1="144.147448" y1="4.73724008" x2="149.495349" y2="13.27202" id="Path-4-Copy-4" stroke="#383A48" stroke-width="6" stroke-linecap="round" transform="translate(146.821399, 9.004630) scale(-1, 1) translate(-146.821399, -9.004630) "></line>
            <line x1="67.6748582" y1="0" x2="69.6568423" y2="9.46458101" id="Path-4-Copy-2" stroke="#383A48" stroke-width="6" stroke-linecap="round"></line>
            <line x1="111.272869" y1="0.338374291" x2="109.294896" y2="9.21007245" id="Path-4-Copy-3" stroke="#383A48" stroke-width="6" stroke-linecap="round"></line>
        </g>
        <g id="10-copy" transform="translate(3211.000000, 78.000000)">
            <path d="M2.39815521,29.5140225 C27.680138,21.7661053 55.068613,17.4548778 84.5635803,16.5803403 C114.058548,15.7058028 145.412616,20.01703 178.625786,29.5140225 C154.591482,58.1050739 124.602352,72.4005997 88.6583961,72.4005997 C52.7144402,72.4005997 23.9610266,58.1050739 2.39815521,29.5140225 Z" id="Path-3" stroke="#383A48" stroke-width="6" fill="#FFFFFF" fill-rule="nonzero" stroke-linejoin="round"></path>
            <g id="Clipped" transform="translate(2.398155, 16.241966)">
                <mask id="mask-16" fill="white">
                    <use xlink:href="#path-15"></use>
                </mask>
                <g id="path-1"></g>
                <g id="Group" mask="url(#mask-16)">
                    <g transform="translate(46.327743, -26.731569)">
                        <path d="M41.2816635,17.9338374 C54.1763119,17.9338374 64.6294896,28.3870152 64.6294896,41.2816635 C64.6294896,54.1763119 54.1763119,64.6294896 41.2816635,64.6294896 C28.3870152,64.6294896 17.9338374,54.1763119 17.9338374,41.2816635 C17.9338374,28.3870152 28.3870152,17.9338374 41.2816635,17.9338374 Z M48.7258979,27.0699433 C44.8014397,27.0699433 41.6200378,30.2513452 41.6200378,34.1758034 C41.6200378,38.1002617 44.8014397,41.2816635 48.7258979,41.2816635 C52.6503562,41.2816635 55.831758,38.1002617 55.831758,34.1758034 C55.831758,30.2513452 52.6503562,27.0699433 48.7258979,27.0699433 Z" id="Combined-Shape" stroke="none" fill="#383A48" fill-rule="evenodd"></path>
                        <circle id="Oval" stroke="#383A48" stroke-width="6" fill="none" cx="40.9432892" cy="40.9432892" r="40.7741021"></circle>
                    </g>
                </g>
            </g>
            <line x1="0" y1="12.1814745" x2="5.12617466" y2="20.2944735" id="Path-4" stroke="#383A48" stroke-width="6" stroke-linecap="round"></line>
            <line x1="35.8676749" y1="4.73724008" x2="38.7086982" y2="13.27202" id="Path-4-Copy" stroke="#383A48" stroke-width="6" stroke-linecap="round"></line>
            <line x1="174.26276" y1="13.1965974" x2="178.654839" y2="19.9614219" id="Path-4-Copy-5" stroke="#383A48" stroke-width="6" stroke-linecap="round" transform="translate(176.458799, 16.579010) scale(-1, 1) translate(-176.458799, -16.579010) "></line>
            <line x1="144.147448" y1="4.73724008" x2="149.495349" y2="13.27202" id="Path-4-Copy-4" stroke="#383A48" stroke-width="6" stroke-linecap="round" transform="translate(146.821399, 9.004630) scale(-1, 1) translate(-146.821399, -9.004630) "></line>
            <line x1="67.6748582" y1="0" x2="69.6568423" y2="9.46458101" id="Path-4-Copy-2" stroke="#383A48" stroke-width="6" stroke-linecap="round"></line>
            <line x1="111.272869" y1="0.338374291" x2="109.294896" y2="9.21007245" id="Path-4-Copy-3" stroke="#383A48" stroke-width="6" stroke-linecap="round"></line>
        </g>
        <g id="11" transform="translate(2611.000000, 107.000000)">
            <path d="M2.39815521,0.0754591588 C27.680138,6.80824368 55.068613,9.7373672 84.5635803,8.86282971 C114.058548,7.98829188 145.412616,5.05916836 178.625786,0.0754591588 C154.591482,28.6665106 124.602352,42.9620363 88.6583961,42.9620363 C52.7144402,42.9620363 23.9610266,28.6665106 2.39815521,0.0754591588 Z" id="Path-3" stroke="#383A48" stroke-width="6" fill="#FFFFFF" fill-rule="nonzero" stroke-linejoin="round"></path>
            <g id="Clipped" transform="translate(2.398155, 0.000000)">
                <mask id="mask-18" fill="white">
                    <use xlink:href="#path-17"></use>
                </mask>
                <g id="path-1"></g>
                <g id="Group" mask="url(#mask-18)">
                    <g transform="translate(46.327743, -39.928166)">
                        <path d="M41.2816635,17.9338374 C54.1763119,17.9338374 64.6294896,28.3870152 64.6294896,41.2816635 C64.6294896,54.1763119 54.1763119,64.6294896 41.2816635,64.6294896 C28.3870152,64.6294896 17.9338374,54.1763119 17.9338374,41.2816635 C17.9338374,28.3870152 28.3870152,17.9338374 41.2816635,17.9338374 Z M48.7258979,27.0699433 C44.8014397,27.0699433 41.6200378,30.2513452 41.6200378,34.1758034 C41.6200378,38.1002617 44.8014397,41.2816635 48.7258979,41.2816635 C52.6503562,41.2816635 55.831758,38.1002617 55.831758,34.1758034 C55.831758,30.2513452 52.6503562,27.0699433 48.7258979,27.0699433 Z" id="Combined-Shape" stroke="none" fill="#383A48" fill-rule="evenodd"></path>
                        <circle id="Oval" stroke="#383A48" stroke-width="6" fill="none" cx="40.9432892" cy="40.9432892" r="40.7741021"></circle>
                    </g>
                </g>
            </g>
            <g id="Group-2" stroke-linecap="round" transform="translate(89.330813, 11.166352) scale(-1, 1) rotate(-180.000000) translate(-89.330813, -11.166352) translate(0.000000, 1.015123)" stroke="#383A48" stroke-width="6">
                <line x1="2.89116347e-13" y1="12.1814745" x2="5.12617466" y2="20.2944736" id="Path-4"></line>
                <line x1="35.8676749" y1="4.73724008" x2="38.7086982" y2="13.2720199" id="Path-4-Copy"></line>
                <line x1="174.26276" y1="13.1965974" x2="178.654839" y2="19.9614219" id="Path-4-Copy-5" transform="translate(176.458799, 16.579010) scale(-1, 1) translate(-176.458799, -16.579010) "></line>
                <line x1="144.147448" y1="4.73724008" x2="149.495349" y2="13.2720199" id="Path-4-Copy-4" transform="translate(146.821399, 9.004630) scale(-1, 1) translate(-146.821399, -9.004630) "></line>
                <line x1="67.6748582" y1="1.08017386e-14" x2="69.6568423" y2="9.46458115" id="Path-4-Copy-2"></line>
                <line x1="111.272869" y1="0.338374291" x2="109.294896" y2="9.21007242" id="Path-4-Copy-3"></line>
            </g>
        </g>
        <g id="11-copy" transform="translate(3011.000000, 107.000000)">
            <path d="M2.39815521,0.0754591588 C27.680138,6.80824368 55.068613,9.7373672 84.5635803,8.86282971 C114.058548,7.98829188 145.412616,5.05916836 178.625786,0.0754591588 C154.591482,28.6665106 124.602352,42.9620363 88.6583961,42.9620363 C52.7144402,42.9620363 23.9610266,28.6665106 2.39815521,0.0754591588 Z" id="Path-3" stroke="#383A48" stroke-width="6" fill="#FFFFFF" fill-rule="nonzero" stroke-linejoin="round"></path>
            <g id="Clipped" transform="translate(2.398155, 0.000000)">
                <mask id="mask-20" fill="white">
                    <use xlink:href="#path-19"></use>
                </mask>
                <g id="path-1"></g>
                <g id="Group" mask="url(#mask-20)">
                    <g transform="translate(46.327743, -39.928166)">
                        <path d="M41.2816635,17.9338374 C54.1763119,17.9338374 64.6294896,28.3870152 64.6294896,41.2816635 C64.6294896,54.1763119 54.1763119,64.6294896 41.2816635,64.6294896 C28.3870152,64.6294896 17.9338374,54.1763119 17.9338374,41.2816635 C17.9338374,28.3870152 28.3870152,17.9338374 41.2816635,17.9338374 Z M48.7258979,27.0699433 C44.8014397,27.0699433 41.6200378,30.2513452 41.6200378,34.1758034 C41.6200378,38.1002617 44.8014397,41.2816635 48.7258979,41.2816635 C52.6503562,41.2816635 55.831758,38.1002617 55.831758,34.1758034 C55.831758,30.2513452 52.6503562,27.0699433 48.7258979,27.0699433 Z" id="Combined-Shape" stroke="none" fill="#383A48" fill-rule="evenodd"></path>
                        <circle id="Oval" stroke="#383A48" stroke-width="6" fill="none" cx="40.9432892" cy="40.9432892" r="40.7741021"></circle>
                    </g>
                </g>
            </g>
            <g id="Group-2" stroke-linecap="round" transform="translate(89.330813, 11.166352) scale(-1, 1) rotate(-180.000000) translate(-89.330813, -11.166352) translate(0.000000, 1.015123)" stroke="#383A48" stroke-width="6">
                <line x1="2.89116347e-13" y1="12.1814745" x2="5.12617466" y2="20.2944736" id="Path-4"></line>
                <line x1="35.8676749" y1="4.73724008" x2="38.7086982" y2="13.2720199" id="Path-4-Copy"></line>
                <line x1="174.26276" y1="13.1965974" x2="178.654839" y2="19.9614219" id="Path-4-Copy-5" transform="translate(176.458799, 16.579010) scale(-1, 1) translate(-176.458799, -16.579010) "></line>
                <line x1="144.147448" y1="4.73724008" x2="149.495349" y2="13.2720199" id="Path-4-Copy-4" transform="translate(146.821399, 9.004630) scale(-1, 1) translate(-146.821399, -9.004630) "></line>
                <line x1="67.6748582" y1="1.08017386e-14" x2="69.6568423" y2="9.46458115" id="Path-4-Copy-2"></line>
                <line x1="111.272869" y1="0.338374291" x2="109.294896" y2="9.21007242" id="Path-4-Copy-3"></line>
            </g>
        </g>
        <g id="12" transform="translate(2801.000000, 106.595238)" stroke="#383A48" stroke-width="6">
            <g id="Group-2" transform="translate(100.000000, 39.404762) scale(-1, 1) rotate(-180.000000) translate(-100.000000, -39.404762) translate(0.000000, 15.404762)">
                <line x1="0.0174918991" y1="34.61365" x2="16.4956825" y2="46.6952826" id="Path-4"></line>
                <line x1="34.9124837" y1="11.1034459" x2="46.2210459" y2="26.4503847" id="Path-4-Copy"></line>
                <line x1="183.216199" y1="35.9197724" x2="199.69439" y2="48.0014051" id="Path-4-Copy-5" transform="translate(191.455295, 41.960589) scale(-1, 1) translate(-191.455295, -41.960589) "></line>
                <line x1="155.106345" y1="11.4299765" x2="166.414907" y2="26.7769153" id="Path-4-Copy-4" transform="translate(160.760626, 19.103446) scale(-1, 1) translate(-160.760626, -19.103446) "></line>
                <line x1="78.5312236" y1="0.00140504764" x2="82.7315467" y2="16.9809969" id="Path-4-Copy-2"></line>
                <line x1="122.149963" y1="0.00140504764" x2="117.94964" y2="15.6748744" id="Path-4-Copy-3"></line>
            </g>
            <path d="M17,0.404761905 C38.5679248,27.7307796 65.8570139,41.3974452 98.8672666,41.4047619 C131.877519,41.4120728 160.588431,27.7454072 185,0.404761905" id="Path-5"></path>
        </g>
    </g>
</svg>