<?xml version="1.0" encoding="UTF-8"?>
<svg width="1900px" height="100px" viewBox="0 0 1900 100" version="1.1" xmlns="http://www.w3.org/2000/svg" xmlns:xlink="http://www.w3.org/1999/xlink">
    <title>spritesheet-mob</title>
    <defs>
        <path d="M0,20.1550753 C13.1080469,7.18262481 26.9388758,0.47975495 41.4924869,0.046465641 C56.0460979,-0.386823669 71.2004218,6.31604618 86.9554581,20.1550753 C75.0962855,34.3205004 60.2988412,41.403213 42.5631255,41.403213 C24.8274098,41.403213 10.6397013,34.3205004 0,20.1550753 Z" id="path-1"></path>
        <path d="M0,19.9612765 C13.1080469,7.11356111 26.9388758,0.475141922 41.4924869,0.046018856 C56.0460979,-0.383104211 71.2004218,6.25531497 86.9554581,19.9612765 C75.0962855,33.9904956 60.2988412,41.0051052 42.5631255,41.0051052 C24.8274098,41.0051052 10.6397013,33.9904956 0,19.9612765 Z" id="path-3"></path>
        <path d="M0,20.1550753 C13.1080469,7.18262481 26.9388758,0.47975495 41.4924869,0.046465641 C56.0460979,-0.386823669 71.2004218,6.31604618 86.9554581,20.1550753 C75.0962855,34.3205004 60.2988412,41.403213 42.5631255,41.403213 C24.8274098,41.403213 10.6397013,34.3205004 0,20.1550753 Z" id="path-5"></path>
        <path d="M0,20.1550753 C13.1080469,7.18262481 26.9388758,0.47975495 41.4924869,0.046465641 C56.0460979,-0.386823669 71.2004218,6.31604618 86.9554581,20.1550753 C75.0962855,34.3205004 60.2988412,41.403213 42.5631255,41.403213 C24.8274098,41.403213 10.6397013,34.3205004 0,20.1550753 Z" id="path-7"></path>
        <path d="M0,20.1550753 C13.1080469,7.18262481 26.9388758,0.47975495 41.4924869,0.046465641 C56.0460979,-0.386823669 71.2004218,6.31604618 86.9554581,20.1550753 C75.0962855,34.3205004 60.2988412,41.403213 42.5631255,41.403213 C24.8274098,41.403213 10.6397013,34.3205004 0,20.1550753 Z" id="path-9"></path>
        <path d="M0,20.1550753 C13.1080469,7.18262481 26.9388758,0.47975495 41.4924869,0.046465641 C56.0460979,-0.386823669 71.2004218,6.31604618 86.9554581,20.1550753 C75.0962855,34.3205004 60.2988412,41.403213 42.5631255,41.403213 C24.8274098,41.403213 10.6397013,34.3205004 0,20.1550753 Z" id="path-11"></path>
        <path d="M3.21375118e-13,6.85211795 C13.2006663,2.85201123 27.5012107,0.626204043 42.9016334,0.174696406 C58.3020561,-0.27681123 74.673185,1.94899595 92.0150198,6.85211795 C79.4658133,21.6131506 63.8073697,28.9936669 45.0396895,28.9936669 C26.2720093,28.9936669 11.2587795,21.6131506 3.21375118e-13,6.85211795 Z" id="path-13"></path>
        <path d="M3.21375118e-13,6.85211795 C13.2006663,2.85201123 27.5012107,0.626204043 42.9016334,0.174696406 C58.3020561,-0.27681123 74.673185,1.94899595 92.0150198,6.85211795 C79.4658133,21.6131506 63.8073697,28.9936669 45.0396895,28.9936669 C26.2720093,28.9936669 11.2587795,21.6131506 3.21375118e-13,6.85211795 Z" id="path-15"></path>
        <path d="M3.31523806e-13,0.0413838145 C13.79086,3.25420828 28.5430006,4.8606205 44.2564218,4.8606205 C59.9698431,4.8606205 76.8579548,3.25420828 94.9207572,0.0413838145 C81.97526,15.721506 65.8223393,23.5615671 46.4619955,23.5615671 C27.1016517,23.5615671 11.6143199,15.721506 3.31523806e-13,0.0413838145 Z" id="path-17"></path>
        <path d="M3.31523806e-13,0.0413838145 C13.79086,3.25420828 28.5430006,4.8606205 44.2564218,4.8606205 C59.9698431,4.8606205 76.8579548,3.25420828 94.9207572,0.0413838145 C81.97526,15.721506 65.8223393,23.5615671 46.4619955,23.5615671 C27.1016517,23.5615671 11.6143199,15.721506 3.31523806e-13,0.0413838145 Z" id="path-19"></path>
    </defs>
    <g id="spritesheet-mob" stroke="none" stroke-width="1" fill="none" fill-rule="evenodd">
        <g id="3" transform="translate(302.000000, 20.000000)">
            <path d="M4.02168513,33.2315731 C17.1297321,20.2591226 30.960561,13.5562528 45.5141721,13.1229635 C60.0677832,12.6896743 75.2221068,19.3925441 90.9771433,33.2315731 C79.1179706,47.3969983 64.3205264,54.4797109 46.5848107,54.4797109 C28.849095,54.4797109 14.6613865,47.3969983 4.02168513,33.2315731 Z" id="Path-3" stroke="#383A48" stroke-width="3" fill="#FFFFFF" fill-rule="nonzero" stroke-linejoin="round"></path>
            <g id="Clipped" transform="translate(4.021685, 13.076498)">
                <mask id="mask-2" fill="white">
                    <use xlink:href="#path-1"></use>
                </mask>
                <g id="path-1"></g>
                <g id="Group" mask="url(#mask-2)">
                    <g transform="translate(6.496983, 0.335295)">
                        <path d="M15.3605948,8.88531267 C21.7231615,8.88531267 26.8810408,14.0643355 26.8810408,20.4529839 C26.8810408,26.8416323 21.7231615,32.0206551 15.3605948,32.0206551 C8.9980281,32.0206551 3.84014869,26.8416323 3.84014869,20.4529839 C3.84014869,14.0643355 8.9980281,8.88531267 15.3605948,8.88531267 Z" id="Combined-Shape-path" stroke="none" fill="#383A48" fill-rule="evenodd"></path>
                        <path d="M19.0337805,13.4117927 C17.0973471,13.4117927 15.5275578,14.988017 15.5275578,16.9323883 C15.5275578,18.8767596 17.0973471,20.4529839 19.0337805,20.4529839 C20.9702139,20.4529839 22.5400032,18.8767596 22.5400032,16.9323883 C22.5400032,14.988017 20.9702139,13.4117927 19.0337805,13.4117927 Z" id="Combined-Shape-path" stroke="none" fill="#FFFFFF" fill-rule="evenodd"></path>
                        <ellipse id="Oval" stroke="#383A48" stroke-width="3" fill="none" cx="20.2025214" cy="20.2853365" rx="20.1190399" ry="20.2015128"></ellipse>
                    </g>
                </g>
            </g>
            <line x1="0.0744425513" y1="15.5938461" x2="7.80089111" y2="22.2971054" id="Path-4" stroke="#383A48" stroke-width="3" stroke-linecap="round"></line>
            <line x1="16.5611072" y1="6.16897535" x2="21.8387042" y2="14.626082" id="Path-4-Copy" stroke="#383A48" stroke-width="3" stroke-linecap="round"></line>
            <line x1="86.65379" y1="16.2617987" x2="94.3802387" y2="22.9650579" id="Path-4-Copy-5" stroke="#383A48" stroke-width="3" stroke-linecap="round" transform="translate(90.517014, 19.613428) scale(-1, 1) translate(-90.517014, -19.613428) "></line>
            <line x1="73.4210432" y1="6.53824894" x2="78.6986402" y2="14.9953556" id="Path-4-Copy-4" stroke="#383A48" stroke-width="3" stroke-linecap="round" transform="translate(76.059842, 10.766802) scale(-1, 1) translate(-76.059842, -10.766802) "></line>
            <line x1="37.2151546" y1="0.0845450912" x2="39.1710833" y2="9.4629911" id="Path-4-Copy-2" stroke="#383A48" stroke-width="3" stroke-linecap="round"></line>
            <line x1="57.8369431" y1="0.0845450912" x2="55.8849733" y2="8.87550378" id="Path-4-Copy-3" stroke="#383A48" stroke-width="3" stroke-linecap="round"></line>
        </g>
        <g id="2" transform="translate(202.000000, 20.000000)">
            <path d="M4.02168513,33.4370446 C17.1297321,20.5893292 30.960561,13.95091 45.5141721,13.521787 C60.0677832,13.092664 75.2221068,19.7310832 90.9771433,33.4370446 C79.1179706,47.4662638 64.3205264,54.4808733 46.5848107,54.4808733 C28.849095,54.4808733 14.6613865,47.4662638 4.02168513,33.4370446 Z" id="Path-3" stroke="#383A48" stroke-width="3" fill="#FFFFFF" fill-rule="nonzero" stroke-linejoin="round"></path>
            <g id="Clipped" transform="translate(4.021685, 13.475768)">
                <mask id="mask-4" fill="white">
                    <use xlink:href="#path-3"></use>
                </mask>
                <g id="path-1"></g>
                <g id="Group" mask="url(#mask-4)">
                    <g transform="translate(13.676391, 0.332071)">
                        <path d="M17.8650396,8.79987697 C24.2276063,8.79987697 29.3854856,13.9291015 29.3854856,20.2563206 C29.3854856,26.5835397 24.2276063,31.7127642 17.8650396,31.7127642 C11.5024729,31.7127642 6.34459349,26.5835397 6.34459349,20.2563206 C6.34459349,13.9291015 11.5024729,8.79987697 17.8650396,8.79987697 Z" id="Combined-Shape-path" stroke="none" fill="#383A48" fill-rule="evenodd"></path>
                        <path d="M21.5382253,13.2828332 C19.6017919,13.2828332 18.0320026,14.8439015 18.0320026,16.7695769 C18.0320026,18.6952523 19.6017919,20.2563206 21.5382253,20.2563206 C23.4746587,20.2563206 25.044448,18.6952523 25.044448,16.7695769 C25.044448,14.8439015 23.4746587,13.2828332 21.5382253,13.2828332 Z" id="Combined-Shape-path" stroke="none" fill="#FFFFFF" fill-rule="evenodd"></path>
                        <ellipse id="Oval" stroke="#383A48" stroke-width="3" fill="none" cx="20.2025214" cy="20.0902851" rx="20.1190399" ry="20.0072674"></ellipse>
                    </g>
                </g>
            </g>
            <line x1="0" y1="15.9843326" x2="7.39114361" y2="22.8094085" id="Path-4" stroke="#383A48" stroke-width="3" stroke-linecap="round"></line>
            <line x1="16.3661037" y1="6.53422756" x2="21.645492" y2="14.9343209" id="Path-4-Copy" stroke="#383A48" stroke-width="3" stroke-linecap="round"></line>
            <line x1="87.1099068" y1="16.5093384" x2="94.5010504" y2="23.3344143" id="Path-4-Copy-5" stroke="#383A48" stroke-width="3" stroke-linecap="round" transform="translate(90.805479, 19.921876) scale(-1, 1) translate(-90.805479, -19.921876) "></line>
            <line x1="73.9114361" y1="6.53422756" x2="79.1908244" y2="14.9343209" id="Path-4-Copy-4" stroke="#383A48" stroke-width="3" stroke-linecap="round" transform="translate(76.551130, 10.734274) scale(-1, 1) translate(-76.551130, -10.734274) "></line>
            <line x1="37.4836569" y1="0.234157532" x2="39.0674734" y2="9.68426257" id="Path-4-Copy-2" stroke="#383A48" stroke-width="3" stroke-linecap="round"></line>
            <line x1="57.5453324" y1="0.234157532" x2="55.9615159" y2="9.15925674" id="Path-4-Copy-3" stroke="#383A48" stroke-width="3" stroke-linecap="round"></line>
        </g>
        <g id="2-copy" transform="translate(402.000000, 20.000000)">
            <path d="M4.02168513,33.2315731 C17.1297321,20.2591226 30.960561,13.5562528 45.5141721,13.1229635 C60.0677832,12.6896743 75.2221068,19.3925441 90.9771433,33.2315731 C79.1179706,47.3969983 64.3205264,54.4797109 46.5848107,54.4797109 C28.849095,54.4797109 14.6613865,47.3969983 4.02168513,33.2315731 Z" id="Path-3" stroke="#383A48" stroke-width="3" fill="#FFFFFF" fill-rule="nonzero" stroke-linejoin="round"></path>
            <g id="Clipped" transform="translate(4.021685, 13.076498)">
                <mask id="mask-6" fill="white">
                    <use xlink:href="#path-5"></use>
                </mask>
                <g id="path-1"></g>
                <g id="Group" mask="url(#mask-6)">
                    <g transform="translate(13.676391, 0.335295)">
                        <path d="M17.8650396,8.88531267 C24.2276063,8.88531267 29.3854856,14.0643355 29.3854856,20.4529839 C29.3854856,26.8416323 24.2276063,32.0206551 17.8650396,32.0206551 C11.5024729,32.0206551 6.34459349,26.8416323 6.34459349,20.4529839 C6.34459349,14.0643355 11.5024729,8.88531267 17.8650396,8.88531267 Z" id="Combined-Shape-path" stroke="none" fill="#383A48" fill-rule="evenodd"></path>
                        <path d="M21.5382253,13.4117927 C19.6017919,13.4117927 18.0320026,14.988017 18.0320026,16.9323883 C18.0320026,18.8767596 19.6017919,20.4529839 21.5382253,20.4529839 C23.4746587,20.4529839 25.044448,18.8767596 25.044448,16.9323883 C25.044448,14.988017 23.4746587,13.4117927 21.5382253,13.4117927 Z" id="Combined-Shape-path" stroke="none" fill="#FFFFFF" fill-rule="evenodd"></path>
                        <ellipse id="Oval" stroke="#383A48" stroke-width="3" fill="none" cx="20.2025214" cy="20.2853365" rx="20.1190399" ry="20.2015128"></ellipse>
                    </g>
                </g>
            </g>
            <line x1="0.0744425513" y1="15.5938461" x2="7.80089111" y2="22.2971054" id="Path-4" stroke="#383A48" stroke-width="3" stroke-linecap="round"></line>
            <line x1="16.5611072" y1="6.16897535" x2="21.8387042" y2="14.626082" id="Path-4-Copy" stroke="#383A48" stroke-width="3" stroke-linecap="round"></line>
            <line x1="86.65379" y1="16.2617987" x2="94.3802387" y2="22.9650579" id="Path-4-Copy-5" stroke="#383A48" stroke-width="3" stroke-linecap="round" transform="translate(90.517014, 19.613428) scale(-1, 1) translate(-90.517014, -19.613428) "></line>
            <line x1="73.4210432" y1="6.53824894" x2="78.6986402" y2="14.9953556" id="Path-4-Copy-4" stroke="#383A48" stroke-width="3" stroke-linecap="round" transform="translate(76.059842, 10.766802) scale(-1, 1) translate(-76.059842, -10.766802) "></line>
            <line x1="37.2151546" y1="0.0845450912" x2="39.1710833" y2="9.4629911" id="Path-4-Copy-2" stroke="#383A48" stroke-width="3" stroke-linecap="round"></line>
            <line x1="57.8369431" y1="0.0845450912" x2="55.8849733" y2="8.87550378" id="Path-4-Copy-3" stroke="#383A48" stroke-width="3" stroke-linecap="round"></line>
        </g>
        <g id="Group-3" transform="translate(102.000000, 20.000000)">
            <path d="M4.63514361,33.7708655 C17.7664727,20.6435392 31.6218678,13.8606448 46.2013287,13.4221825 C60.7807896,12.9837202 75.9620303,19.7666146 91.7450504,33.7708655 C79.8648138,48.1054093 65.0410865,55.2726812 47.273869,55.2726812 C29.5066514,55.2726812 15.293743,48.1054093 4.63514361,33.7708655 Z" id="Path-3" stroke="#383A48" stroke-width="3" fill="#FFFFFF" fill-rule="nonzero" stroke-linejoin="round"></path>
            <path d="M47.8301387,22.8700483 C54.2314819,22.8700483 59.4207957,28.0796801 59.4207957,34.5060867 C59.4207957,40.9324933 54.2314819,46.1421251 47.8301387,46.1421251 C41.4287956,46.1421251 36.2394817,40.9324933 36.2394817,34.5060867 C36.2394817,28.0796801 41.4287956,22.8700483 47.8301387,22.8700483 Z M51.5257105,27.4232807 C49.5774756,27.4232807 47.9981193,29.0088208 47.9981193,30.9646837 C47.9981193,32.9205466 49.5774756,34.5060867 51.5257105,34.5060867 C53.4739454,34.5060867 55.0533018,32.9205466 55.0533018,30.9646837 C55.0533018,29.0088208 53.4739454,27.4232807 51.5257105,27.4232807 Z" id="Combined-Shape" fill="#383A48" fill-rule="nonzero"></path>
            <ellipse id="Oval" stroke="#383A48" stroke-width="3" cx="47.6621582" cy="34.3374485" rx="20.2416547" ry="20.3209077"></ellipse>
            <line x1="0.411632981" y1="16.0522452" x2="7.80277659" y2="22.9423218" id="Path-4" stroke="#383A48" stroke-width="3" stroke-linecap="round"></line>
            <line x1="16.7777367" y1="6.51213918" x2="22.057125" y2="14.9922334" id="Path-4-Copy" stroke="#383A48" stroke-width="3" stroke-linecap="round"></line>
            <line x1="87.5215398" y1="16.5822511" x2="94.9126834" y2="23.4723277" id="Path-4-Copy-5" stroke="#383A48" stroke-width="3" stroke-linecap="round" transform="translate(91.217112, 20.027289) scale(-1, 1) translate(-91.217112, -20.027289) "></line>
            <line x1="74.3230691" y1="6.51213918" x2="79.6024574" y2="14.9922334" id="Path-4-Copy-4" stroke="#383A48" stroke-width="3" stroke-linecap="round" transform="translate(76.962763, 10.752186) scale(-1, 1) translate(-76.962763, -10.752186) "></line>
            <line x1="37.8952899" y1="0.152068485" x2="39.4791063" y2="9.69217453" id="Path-4-Copy-2" stroke="#383A48" stroke-width="3" stroke-linecap="round"></line>
            <line x1="57.9569654" y1="0.152068485" x2="56.3731489" y2="9.16216864" id="Path-4-Copy-3" stroke="#383A48" stroke-width="3" stroke-linecap="round"></line>
            <g id="Group" transform="translate(27.336513, 13.932222)"></g>
        </g>
        <g id="Group-4" transform="translate(502.000000, 20.000000)">
            <path d="M4.22351063,33.618797 C17.3548398,20.4914707 31.2102348,13.7085763 45.7896957,13.270114 C60.3691566,12.8316517 75.5503973,19.6145461 91.3334174,33.618797 C79.4531808,47.9533408 64.6294536,55.1206127 46.862236,55.1206127 C29.0950184,55.1206127 14.88211,47.9533408 4.22351063,33.618797 Z" id="Path-3" stroke="#383A48" stroke-width="3" fill="#FFFFFF" fill-rule="nonzero" stroke-linejoin="round"></path>
            <g id="Group" transform="translate(26.924880, 13.780153)">
                <path d="M20.4936255,8.93782662 C26.8949686,8.93782662 32.0842825,14.1474585 32.0842825,20.5738651 C32.0842825,27.0002717 26.8949686,32.2099035 20.4936255,32.2099035 C14.0922824,32.2099035 8.90296844,27.0002717 8.90296844,20.5738651 C8.90296844,14.1474585 14.0922824,8.93782662 20.4936255,8.93782662 Z M24.1891973,13.491059 C22.2409624,13.491059 20.661606,15.0765992 20.661606,17.0324621 C20.661606,18.988325 22.2409624,20.5738651 24.1891973,20.5738651 C26.1374322,20.5738651 27.7167885,18.988325 27.7167885,17.0324621 C27.7167885,15.0765992 26.1374322,13.491059 24.1891973,13.491059 Z" id="Combined-Shape" fill="#383A48" fill-rule="nonzero"></path>
                <ellipse id="Oval" stroke="#383A48" stroke-width="3" cx="20.3256449" cy="20.4052268" rx="20.2416547" ry="20.3209077"></ellipse>
            </g>
            <line x1="-1.45784619e-13" y1="15.9001767" x2="7.39114361" y2="22.7902533" id="Path-4" stroke="#383A48" stroke-width="3" stroke-linecap="round"></line>
            <line x1="16.3661037" y1="6.36007069" x2="21.645492" y2="14.840165" id="Path-4-Copy" stroke="#383A48" stroke-width="3" stroke-linecap="round"></line>
            <line x1="87.1099068" y1="16.4301826" x2="94.5010504" y2="23.3202592" id="Path-4-Copy-5" stroke="#383A48" stroke-width="3" stroke-linecap="round" transform="translate(90.805479, 19.875221) scale(-1, 1) translate(-90.805479, -19.875221) "></line>
            <line x1="73.9114361" y1="6.36007069" x2="79.1908244" y2="14.840165" id="Path-4-Copy-4" stroke="#383A48" stroke-width="3" stroke-linecap="round" transform="translate(76.551130, 10.600118) scale(-1, 1) translate(-76.551130, -10.600118) "></line>
            <line x1="37.4836569" y1="1.125026e-13" x2="39.0674734" y2="9.54010604" id="Path-4-Copy-2" stroke="#383A48" stroke-width="3" stroke-linecap="round"></line>
            <line x1="57.5453324" y1="-1.87504333e-15" x2="55.9615159" y2="9.01010015" id="Path-4-Copy-3" stroke="#383A48" stroke-width="3" stroke-linecap="round"></line>
        </g>
        <g id="Group-5" transform="translate(602.000000, 20.000000)">
            <path d="M4.22351063,33.618797 C17.3548398,20.4914707 31.2102348,13.7085763 45.7896957,13.270114 C60.3691566,12.8316517 75.5503973,19.6145461 91.3334174,33.618797 C79.4531808,47.9533408 64.6294536,55.1206127 46.862236,55.1206127 C29.0950184,55.1206127 14.88211,47.9533408 4.22351063,33.618797 Z" id="Path-3" stroke="#383A48" stroke-width="3" fill="#FFFFFF" fill-rule="nonzero" stroke-linejoin="round"></path>
            <g id="Group" transform="translate(26.924880, 13.780153)">
                <path d="M20.4936255,8.93782662 C26.8949686,8.93782662 32.0842825,14.1474585 32.0842825,20.5738651 C32.0842825,27.0002717 26.8949686,32.2099035 20.4936255,32.2099035 C14.0922824,32.2099035 8.90296844,27.0002717 8.90296844,20.5738651 C8.90296844,14.1474585 14.0922824,8.93782662 20.4936255,8.93782662 Z M24.1891973,13.491059 C22.2409624,13.491059 20.661606,15.0765992 20.661606,17.0324621 C20.661606,18.988325 22.2409624,20.5738651 24.1891973,20.5738651 C26.1374322,20.5738651 27.7167885,18.988325 27.7167885,17.0324621 C27.7167885,15.0765992 26.1374322,13.491059 24.1891973,13.491059 Z" id="Combined-Shape" fill="#383A48" fill-rule="nonzero"></path>
                <ellipse id="Oval" stroke="#383A48" stroke-width="3" cx="20.3256449" cy="20.4052268" rx="20.2416547" ry="20.3209077"></ellipse>
            </g>
            <line x1="-1.46722141e-13" y1="15.9001767" x2="7.39114361" y2="22.7902533" id="Path-4" stroke="#383A48" stroke-width="3" stroke-linecap="round"></line>
            <line x1="16.3661037" y1="6.36007069" x2="21.645492" y2="14.840165" id="Path-4-Copy" stroke="#383A48" stroke-width="3" stroke-linecap="round"></line>
            <line x1="87.1099068" y1="16.4301826" x2="94.5010504" y2="23.3202592" id="Path-4-Copy-5" stroke="#383A48" stroke-width="3" stroke-linecap="round" transform="translate(90.805479, 19.875221) scale(-1, 1) translate(-90.805479, -19.875221) "></line>
            <line x1="73.9114361" y1="6.36007069" x2="79.1908244" y2="14.840165" id="Path-4-Copy-4" stroke="#383A48" stroke-width="3" stroke-linecap="round" transform="translate(76.551130, 10.600118) scale(-1, 1) translate(-76.551130, -10.600118) "></line>
            <line x1="37.4836569" y1="1.125026e-13" x2="39.0674734" y2="9.54010604" id="Path-4-Copy-2" stroke="#383A48" stroke-width="3" stroke-linecap="round"></line>
            <line x1="57.5453324" y1="-1.87504333e-15" x2="55.9615159" y2="9.01010015" id="Path-4-Copy-3" stroke="#383A48" stroke-width="3" stroke-linecap="round"></line>
        </g>
        <g id="6" transform="translate(702.000000, 20.000000)">
            <path d="M4.02168513,33.2315731 C17.1297321,20.2591226 30.960561,13.5562528 45.5141721,13.1229635 C60.0677832,12.6896743 75.2221068,19.3925441 90.9771433,33.2315731 C79.1179706,47.3969983 64.3205264,54.4797109 46.5848107,54.4797109 C28.849095,54.4797109 14.6613865,47.3969983 4.02168513,33.2315731 Z" id="Path-3" stroke="#383A48" stroke-width="3" fill="#FFFFFF" fill-rule="nonzero" stroke-linejoin="round"></path>
            <g id="Clipped" transform="translate(4.021685, 13.076498)">
                <mask id="mask-8" fill="white">
                    <use xlink:href="#path-7"></use>
                </mask>
                <g id="path-1"></g>
                <g id="Group" mask="url(#mask-8)">
                    <g transform="translate(34.546765, 0.335295)">
                        <path d="M23.7087441,8.88531267 C30.0713108,8.88531267 35.2291902,14.0643355 35.2291902,20.4529839 C35.2291902,26.8416323 30.0713108,32.0206551 23.7087441,32.0206551 C17.3461774,32.0206551 12.188298,26.8416323 12.188298,20.4529839 C12.188298,14.0643355 17.3461774,8.88531267 23.7087441,8.88531267 Z" id="Combined-Shape-path" stroke="none" fill="#383A48" fill-rule="evenodd"></path>
                        <path d="M27.3819298,13.4117927 C25.4454964,13.4117927 23.8757071,14.988017 23.8757071,16.9323883 C23.8757071,18.8767596 25.4454964,20.4529839 27.3819298,20.4529839 C29.3183632,20.4529839 30.8881525,18.8767596 30.8881525,16.9323883 C30.8881525,14.988017 29.3183632,13.4117927 27.3819298,13.4117927 Z" id="Combined-Shape-path" stroke="none" fill="#FFFFFF" fill-rule="evenodd"></path>
                        <ellipse id="Oval" stroke="#383A48" stroke-width="3" fill="none" cx="20.2025214" cy="20.2853365" rx="20.1190399" ry="20.2015128"></ellipse>
                    </g>
                </g>
            </g>
            <line x1="0.0744425513" y1="15.5938461" x2="7.80089111" y2="22.2971054" id="Path-4" stroke="#383A48" stroke-width="3" stroke-linecap="round"></line>
            <line x1="16.5611072" y1="6.16897535" x2="21.8387042" y2="14.626082" id="Path-4-Copy" stroke="#383A48" stroke-width="3" stroke-linecap="round"></line>
            <line x1="86.65379" y1="16.2617987" x2="94.3802387" y2="22.9650579" id="Path-4-Copy-5" stroke="#383A48" stroke-width="3" stroke-linecap="round" transform="translate(90.517014, 19.613428) scale(-1, 1) translate(-90.517014, -19.613428) "></line>
            <line x1="73.4210432" y1="6.53824894" x2="78.6986402" y2="14.9953556" id="Path-4-Copy-4" stroke="#383A48" stroke-width="3" stroke-linecap="round" transform="translate(76.059842, 10.766802) scale(-1, 1) translate(-76.059842, -10.766802) "></line>
            <line x1="37.2151546" y1="0.0845450912" x2="39.1710833" y2="9.4629911" id="Path-4-Copy-2" stroke="#383A48" stroke-width="3" stroke-linecap="round"></line>
            <line x1="57.8369431" y1="0.0845450912" x2="55.8849733" y2="8.87550378" id="Path-4-Copy-3" stroke="#383A48" stroke-width="3" stroke-linecap="round"></line>
        </g>
        <g id="7" transform="translate(802.000000, 20.000000)">
            <path d="M4.02168513,33.2315731 C17.1297321,20.2591226 30.960561,13.5562528 45.5141721,13.1229635 C60.0677832,12.6896743 75.2221068,19.3925441 90.9771433,33.2315731 C79.1179706,47.3969983 64.3205264,54.4797109 46.5848107,54.4797109 C28.849095,54.4797109 14.6613865,47.3969983 4.02168513,33.2315731 Z" id="Path-3" stroke="#383A48" stroke-width="3" fill="#FFFFFF" fill-rule="nonzero" stroke-linejoin="round"></path>
            <g id="Clipped" transform="translate(4.021685, 13.076498)">
                <mask id="mask-10" fill="white">
                    <use xlink:href="#path-9"></use>
                </mask>
                <g id="path-1"></g>
                <g id="Group" mask="url(#mask-10)">
                    <g transform="translate(39.555654, 0.335295)">
                        <path d="M25.378374,8.88531267 C31.7409407,8.88531267 36.89882,14.0643355 36.89882,20.4529839 C36.89882,26.8416323 31.7409407,32.0206551 25.378374,32.0206551 C19.0158072,32.0206551 13.8579279,26.8416323 13.8579279,20.4529839 C13.8579279,14.0643355 19.0158072,8.88531267 25.378374,8.88531267 Z" id="Combined-Shape-path" stroke="none" fill="#383A48" fill-rule="evenodd"></path>
                        <path d="M29.0515597,13.4117927 C27.1151263,13.4117927 25.545337,14.988017 25.545337,16.9323883 C25.545337,18.8767596 27.1151263,20.4529839 29.0515597,20.4529839 C30.987993,20.4529839 32.5577824,18.8767596 32.5577824,16.9323883 C32.5577824,14.988017 30.987993,13.4117927 29.0515597,13.4117927 Z" id="Combined-Shape-path" stroke="none" fill="#FFFFFF" fill-rule="evenodd"></path>
                        <ellipse id="Oval" stroke="#383A48" stroke-width="3" fill="none" cx="20.2025214" cy="20.2853365" rx="20.1190399" ry="20.2015128"></ellipse>
                    </g>
                </g>
            </g>
            <line x1="0.0744425513" y1="15.5938461" x2="7.80089111" y2="22.2971054" id="Path-4" stroke="#383A48" stroke-width="3" stroke-linecap="round"></line>
            <line x1="16.5611072" y1="6.16897535" x2="21.8387042" y2="14.626082" id="Path-4-Copy" stroke="#383A48" stroke-width="3" stroke-linecap="round"></line>
            <line x1="86.65379" y1="16.2617987" x2="94.3802387" y2="22.9650579" id="Path-4-Copy-5" stroke="#383A48" stroke-width="3" stroke-linecap="round" transform="translate(90.517014, 19.613428) scale(-1, 1) translate(-90.517014, -19.613428) "></line>
            <line x1="73.4210432" y1="6.53824894" x2="78.6986402" y2="14.9953556" id="Path-4-Copy-4" stroke="#383A48" stroke-width="3" stroke-linecap="round" transform="translate(76.059842, 10.766802) scale(-1, 1) translate(-76.059842, -10.766802) "></line>
            <line x1="37.2151546" y1="0.0845450912" x2="39.1710833" y2="9.4629911" id="Path-4-Copy-2" stroke="#383A48" stroke-width="3" stroke-linecap="round"></line>
            <line x1="57.8369431" y1="0.0845450912" x2="55.8849733" y2="8.87550378" id="Path-4-Copy-3" stroke="#383A48" stroke-width="3" stroke-linecap="round"></line>
        </g>
        <g id="8" transform="translate(902.000000, 20.000000)">
            <path d="M4.02168513,33.2315731 C17.1297321,20.2591226 30.960561,13.5562528 45.5141721,13.1229635 C60.0677832,12.6896743 75.2221068,19.3925441 90.9771433,33.2315731 C79.1179706,47.3969983 64.3205264,54.4797109 46.5848107,54.4797109 C28.849095,54.4797109 14.6613865,47.3969983 4.02168513,33.2315731 Z" id="Path-3" stroke="#383A48" stroke-width="3" fill="#FFFFFF" fill-rule="nonzero" stroke-linejoin="round"></path>
            <g id="Clipped" transform="translate(4.021685, 13.076498)">
                <mask id="mask-12" fill="white">
                    <use xlink:href="#path-11"></use>
                </mask>
                <g id="path-1"></g>
                <g id="Group" mask="url(#mask-12)">
                    <g transform="translate(34.546765, 0.335295)">
                        <path d="M23.7087441,8.88531267 C30.0713108,8.88531267 35.2291902,14.0643355 35.2291902,20.4529839 C35.2291902,26.8416323 30.0713108,32.0206551 23.7087441,32.0206551 C17.3461774,32.0206551 12.188298,26.8416323 12.188298,20.4529839 C12.188298,14.0643355 17.3461774,8.88531267 23.7087441,8.88531267 Z" id="Combined-Shape-path" stroke="none" fill="#383A48" fill-rule="evenodd"></path>
                        <path d="M27.3819298,13.4117927 C25.4454964,13.4117927 23.8757071,14.988017 23.8757071,16.9323883 C23.8757071,18.8767596 25.4454964,20.4529839 27.3819298,20.4529839 C29.3183632,20.4529839 30.8881525,18.8767596 30.8881525,16.9323883 C30.8881525,14.988017 29.3183632,13.4117927 27.3819298,13.4117927 Z" id="Combined-Shape-path" stroke="none" fill="#FFFFFF" fill-rule="evenodd"></path>
                        <ellipse id="Oval" stroke="#383A48" stroke-width="3" fill="none" cx="20.2025214" cy="20.2853365" rx="20.1190399" ry="20.2015128"></ellipse>
                    </g>
                </g>
            </g>
            <line x1="0.0744425513" y1="15.5938461" x2="7.80089111" y2="22.2971054" id="Path-4" stroke="#383A48" stroke-width="3" stroke-linecap="round"></line>
            <line x1="16.5611072" y1="6.16897535" x2="21.8387042" y2="14.626082" id="Path-4-Copy" stroke="#383A48" stroke-width="3" stroke-linecap="round"></line>
            <line x1="86.65379" y1="16.2617987" x2="94.3802387" y2="22.9650579" id="Path-4-Copy-5" stroke="#383A48" stroke-width="3" stroke-linecap="round" transform="translate(90.517014, 19.613428) scale(-1, 1) translate(-90.517014, -19.613428) "></line>
            <line x1="73.4210432" y1="6.53824894" x2="78.6986402" y2="14.9953556" id="Path-4-Copy-4" stroke="#383A48" stroke-width="3" stroke-linecap="round" transform="translate(76.059842, 10.766802) scale(-1, 1) translate(-76.059842, -10.766802) "></line>
            <line x1="37.2151546" y1="0.0845450912" x2="39.1710833" y2="9.4629911" id="Path-4-Copy-2" stroke="#383A48" stroke-width="3" stroke-linecap="round"></line>
            <line x1="57.8369431" y1="0.0845450912" x2="55.8849733" y2="8.87550378" id="Path-4-Copy-3" stroke="#383A48" stroke-width="3" stroke-linecap="round"></line>
        </g>
        <g id="Group-2" transform="translate(2.000000, 20.000000)">
            <path d="M4.22351063,33.618797 C17.3548398,20.4914707 31.2102348,13.7085763 45.7896957,13.270114 C60.3691566,12.8316517 75.5503973,19.6145461 91.3334174,33.618797 C79.4531808,47.9533408 64.6294536,55.1206127 46.862236,55.1206127 C29.0950184,55.1206127 14.88211,47.9533408 4.22351063,33.618797 Z" id="Path-3" stroke="#383A48" stroke-width="3" fill="#FFFFFF" fill-rule="nonzero" stroke-linejoin="round"></path>
            <g id="Group" transform="translate(26.924880, 13.780153)">
                <path d="M20.4936255,8.93782662 C26.8949686,8.93782662 32.0842825,14.1474585 32.0842825,20.5738651 C32.0842825,27.0002717 26.8949686,32.2099035 20.4936255,32.2099035 C14.0922824,32.2099035 8.90296844,27.0002717 8.90296844,20.5738651 C8.90296844,14.1474585 14.0922824,8.93782662 20.4936255,8.93782662 Z M24.1891973,13.491059 C22.2409624,13.491059 20.661606,15.0765992 20.661606,17.0324621 C20.661606,18.988325 22.2409624,20.5738651 24.1891973,20.5738651 C26.1374322,20.5738651 27.7167885,18.988325 27.7167885,17.0324621 C27.7167885,15.0765992 26.1374322,13.491059 24.1891973,13.491059 Z" id="Combined-Shape" fill="#383A48" fill-rule="nonzero"></path>
                <ellipse id="Oval" stroke="#383A48" stroke-width="3" cx="20.3256449" cy="20.4052268" rx="20.2416547" ry="20.3209077"></ellipse>
            </g>
            <line x1="-1.49065945e-13" y1="15.9001767" x2="7.39114361" y2="22.7902533" id="Path-4" stroke="#383A48" stroke-width="3" stroke-linecap="round"></line>
            <line x1="16.3661037" y1="6.36007069" x2="21.645492" y2="14.840165" id="Path-4-Copy" stroke="#383A48" stroke-width="3" stroke-linecap="round"></line>
            <line x1="87.1099068" y1="16.4301826" x2="94.5010504" y2="23.3202592" id="Path-4-Copy-5" stroke="#383A48" stroke-width="3" stroke-linecap="round" transform="translate(90.805479, 19.875221) scale(-1, 1) translate(-90.805479, -19.875221) "></line>
            <line x1="73.9114361" y1="6.36007069" x2="79.1908244" y2="14.840165" id="Path-4-Copy-4" stroke="#383A48" stroke-width="3" stroke-linecap="round" transform="translate(76.551130, 10.600118) scale(-1, 1) translate(-76.551130, -10.600118) "></line>
            <line x1="37.4836569" y1="1.125026e-13" x2="39.0674734" y2="9.54010604" id="Path-4-Copy-2" stroke="#383A48" stroke-width="3" stroke-linecap="round"></line>
            <line x1="57.5453324" y1="-1.87504333e-15" x2="55.9615159" y2="9.01010015" id="Path-4-Copy-3" stroke="#383A48" stroke-width="3" stroke-linecap="round"></line>
        </g>
        <g id="Group-6" transform="translate(1002.000000, 20.000000)">
            <path d="M4.22351063,33.618797 C17.3548398,20.4914707 31.2102348,13.7085763 45.7896957,13.270114 C60.3691566,12.8316517 75.5503973,19.6145461 91.3334174,33.618797 C79.4531808,47.9533408 64.6294536,55.1206127 46.862236,55.1206127 C29.0950184,55.1206127 14.88211,47.9533408 4.22351063,33.618797 Z" id="Path-3" stroke="#383A48" stroke-width="3" fill="#FFFFFF" fill-rule="nonzero" stroke-linejoin="round"></path>
            <g id="Group" transform="translate(26.924880, 13.780153)">
                <path d="M20.4936255,8.93782662 C26.8949686,8.93782662 32.0842825,14.1474585 32.0842825,20.5738651 C32.0842825,27.0002717 26.8949686,32.2099035 20.4936255,32.2099035 C14.0922824,32.2099035 8.90296844,27.0002717 8.90296844,20.5738651 C8.90296844,14.1474585 14.0922824,8.93782662 20.4936255,8.93782662 Z M24.1891973,13.491059 C22.2409624,13.491059 20.661606,15.0765992 20.661606,17.0324621 C20.661606,18.988325 22.2409624,20.5738651 24.1891973,20.5738651 C26.1374322,20.5738651 27.7167885,18.988325 27.7167885,17.0324621 C27.7167885,15.0765992 26.1374322,13.491059 24.1891973,13.491059 Z" id="Combined-Shape" fill="#383A48" fill-rule="nonzero"></path>
                <ellipse id="Oval" stroke="#383A48" stroke-width="3" cx="20.3256449" cy="20.4052268" rx="20.2416547" ry="20.3209077"></ellipse>
            </g>
            <line x1="8.32050478e-13" y1="15.9001767" x2="7.39114361" y2="22.7902533" id="Path-4" stroke="#383A48" stroke-width="3" stroke-linecap="round"></line>
            <line x1="16.3661037" y1="6.36007069" x2="21.645492" y2="14.840165" id="Path-4-Copy" stroke="#383A48" stroke-width="3" stroke-linecap="round"></line>
            <line x1="87.1099068" y1="16.4301826" x2="94.5010504" y2="23.3202592" id="Path-4-Copy-5" stroke="#383A48" stroke-width="3" stroke-linecap="round" transform="translate(90.805479, 19.875221) scale(-1, 1) translate(-90.805479, -19.875221) "></line>
            <line x1="73.9114361" y1="6.36007069" x2="79.1908244" y2="14.840165" id="Path-4-Copy-4" stroke="#383A48" stroke-width="3" stroke-linecap="round" transform="translate(76.551130, 10.600118) scale(-1, 1) translate(-76.551130, -10.600118) "></line>
            <line x1="37.4836569" y1="1.125026e-13" x2="39.0674734" y2="9.54010604" id="Path-4-Copy-2" stroke="#383A48" stroke-width="3" stroke-linecap="round"></line>
            <line x1="57.5453324" y1="-1.87504333e-15" x2="55.9615159" y2="9.01010015" id="Path-4-Copy-3" stroke="#383A48" stroke-width="3" stroke-linecap="round"></line>
        </g>
        <g id="Group-7" transform="translate(1102.000000, 20.000000)">
            <path d="M4.22351063,33.618797 C17.3548398,20.4914707 31.2102348,13.7085763 45.7896957,13.270114 C60.3691566,12.8316517 75.5503973,19.6145461 91.3334174,33.618797 C79.4531808,47.9533408 64.6294536,55.1206127 46.862236,55.1206127 C29.0950184,55.1206127 14.88211,47.9533408 4.22351063,33.618797 Z" id="Path-3" stroke="#383A48" stroke-width="3" fill="#FFFFFF" fill-rule="nonzero" stroke-linejoin="round"></path>
            <g id="Group" transform="translate(26.924880, 13.780153)">
                <path d="M20.4936255,8.93782662 C26.8949686,8.93782662 32.0842825,14.1474585 32.0842825,20.5738651 C32.0842825,27.0002717 26.8949686,32.2099035 20.4936255,32.2099035 C14.0922824,32.2099035 8.90296844,27.0002717 8.90296844,20.5738651 C8.90296844,14.1474585 14.0922824,8.93782662 20.4936255,8.93782662 Z M24.1891973,13.491059 C22.2409624,13.491059 20.661606,15.0765992 20.661606,17.0324621 C20.661606,18.988325 22.2409624,20.5738651 24.1891973,20.5738651 C26.1374322,20.5738651 27.7167885,18.988325 27.7167885,17.0324621 C27.7167885,15.0765992 26.1374322,13.491059 24.1891973,13.491059 Z" id="Combined-Shape" fill="#383A48" fill-rule="nonzero"></path>
                <ellipse id="Oval" stroke="#383A48" stroke-width="3" cx="20.3256449" cy="20.4052268" rx="20.2416547" ry="20.3209077"></ellipse>
            </g>
            <line x1="-1.55159836e-13" y1="15.9001767" x2="7.39114361" y2="22.7902533" id="Path-4" stroke="#383A48" stroke-width="3" stroke-linecap="round"></line>
            <line x1="16.3661037" y1="6.36007069" x2="21.645492" y2="14.840165" id="Path-4-Copy" stroke="#383A48" stroke-width="3" stroke-linecap="round"></line>
            <line x1="87.1099068" y1="16.4301826" x2="94.5010504" y2="23.3202592" id="Path-4-Copy-5" stroke="#383A48" stroke-width="3" stroke-linecap="round" transform="translate(90.805479, 19.875221) scale(-1, 1) translate(-90.805479, -19.875221) "></line>
            <line x1="73.9114361" y1="6.36007069" x2="79.1908244" y2="14.840165" id="Path-4-Copy-4" stroke="#383A48" stroke-width="3" stroke-linecap="round" transform="translate(76.551130, 10.600118) scale(-1, 1) translate(-76.551130, -10.600118) "></line>
            <line x1="37.4836569" y1="1.125026e-13" x2="39.0674734" y2="9.54010604" id="Path-4-Copy-2" stroke="#383A48" stroke-width="3" stroke-linecap="round"></line>
            <line x1="57.5453324" y1="-1.87504333e-15" x2="55.9615159" y2="9.01010015" id="Path-4-Copy-3" stroke="#383A48" stroke-width="3" stroke-linecap="round"></line>
        </g>
        <g id="Group-13" transform="translate(1702.000000, 20.000000)">
            <path d="M4.22351063,33.618797 C17.3548398,20.4914707 31.2102348,13.7085763 45.7896957,13.270114 C60.3691566,12.8316517 75.5503973,19.6145461 91.3334174,33.618797 C79.4531808,47.9533408 64.6294536,55.1206127 46.862236,55.1206127 C29.0950184,55.1206127 14.88211,47.9533408 4.22351063,33.618797 Z" id="Path-3" stroke="#383A48" stroke-width="3" fill="#FFFFFF" fill-rule="nonzero" stroke-linejoin="round"></path>
            <g id="Group" transform="translate(26.924880, 13.780153)">
                <path d="M20.4936255,8.93782662 C26.8949686,8.93782662 32.0842825,14.1474585 32.0842825,20.5738651 C32.0842825,27.0002717 26.8949686,32.2099035 20.4936255,32.2099035 C14.0922824,32.2099035 8.90296844,27.0002717 8.90296844,20.5738651 C8.90296844,14.1474585 14.0922824,8.93782662 20.4936255,8.93782662 Z M24.1891973,13.491059 C22.2409624,13.491059 20.661606,15.0765992 20.661606,17.0324621 C20.661606,18.988325 22.2409624,20.5738651 24.1891973,20.5738651 C26.1374322,20.5738651 27.7167885,18.988325 27.7167885,17.0324621 C27.7167885,15.0765992 26.1374322,13.491059 24.1891973,13.491059 Z" id="Combined-Shape" fill="#383A48" fill-rule="nonzero"></path>
                <ellipse id="Oval" stroke="#383A48" stroke-width="3" cx="20.3256449" cy="20.4052268" rx="20.2416547" ry="20.3209077"></ellipse>
            </g>
            <line x1="8.14237566e-13" y1="15.9001767" x2="7.39114361" y2="22.7902533" id="Path-4" stroke="#383A48" stroke-width="3" stroke-linecap="round"></line>
            <line x1="16.3661037" y1="6.36007069" x2="21.645492" y2="14.840165" id="Path-4-Copy" stroke="#383A48" stroke-width="3" stroke-linecap="round"></line>
            <line x1="87.1099068" y1="16.4301826" x2="94.5010504" y2="23.3202592" id="Path-4-Copy-5" stroke="#383A48" stroke-width="3" stroke-linecap="round" transform="translate(90.805479, 19.875221) scale(-1, 1) translate(-90.805479, -19.875221) "></line>
            <line x1="73.9114361" y1="6.36007069" x2="79.1908244" y2="14.840165" id="Path-4-Copy-4" stroke="#383A48" stroke-width="3" stroke-linecap="round" transform="translate(76.551130, 10.600118) scale(-1, 1) translate(-76.551130, -10.600118) "></line>
            <line x1="37.4836569" y1="1.125026e-13" x2="39.0674734" y2="9.54010604" id="Path-4-Copy-2" stroke="#383A48" stroke-width="3" stroke-linecap="round"></line>
            <line x1="57.5453324" y1="-1.87504333e-15" x2="55.9615159" y2="9.01010015" id="Path-4-Copy-3" stroke="#383A48" stroke-width="3" stroke-linecap="round"></line>
        </g>
        <g id="Group-14" transform="translate(1802.000000, 20.000000)">
            <path d="M4.22351063,33.618797 C17.3548398,20.4914707 31.2102348,13.7085763 45.7896957,13.270114 C60.3691566,12.8316517 75.5503973,19.6145461 91.3334174,33.618797 C79.4531808,47.9533408 64.6294536,55.1206127 46.862236,55.1206127 C29.0950184,55.1206127 14.88211,47.9533408 4.22351063,33.618797 Z" id="Path-3" stroke="#383A48" stroke-width="3" fill="#FFFFFF" fill-rule="nonzero" stroke-linejoin="round"></path>
            <g id="Group" transform="translate(26.924880, 13.780153)">
                <path d="M20.4936255,8.93782662 C26.8949686,8.93782662 32.0842825,14.1474585 32.0842825,20.5738651 C32.0842825,27.0002717 26.8949686,32.2099035 20.4936255,32.2099035 C14.0922824,32.2099035 8.90296844,27.0002717 8.90296844,20.5738651 C8.90296844,14.1474585 14.0922824,8.93782662 20.4936255,8.93782662 Z M24.1891973,13.491059 C22.2409624,13.491059 20.661606,15.0765992 20.661606,17.0324621 C20.661606,18.988325 22.2409624,20.5738651 24.1891973,20.5738651 C26.1374322,20.5738651 27.7167885,18.988325 27.7167885,17.0324621 C27.7167885,15.0765992 26.1374322,13.491059 24.1891973,13.491059 Z" id="Combined-Shape" fill="#383A48" fill-rule="nonzero"></path>
                <ellipse id="Oval" stroke="#383A48" stroke-width="3" cx="20.3256449" cy="20.4052268" rx="20.2416547" ry="20.3209077"></ellipse>
            </g>
            <line x1="-1.46722141e-13" y1="15.9001767" x2="7.39114361" y2="22.7902533" id="Path-4" stroke="#383A48" stroke-width="3" stroke-linecap="round"></line>
            <line x1="16.3661037" y1="6.36007069" x2="21.645492" y2="14.840165" id="Path-4-Copy" stroke="#383A48" stroke-width="3" stroke-linecap="round"></line>
            <line x1="87.1099068" y1="16.4301826" x2="94.5010504" y2="23.3202592" id="Path-4-Copy-5" stroke="#383A48" stroke-width="3" stroke-linecap="round" transform="translate(90.805479, 19.875221) scale(-1, 1) translate(-90.805479, -19.875221) "></line>
            <line x1="73.9114361" y1="6.36007069" x2="79.1908244" y2="14.840165" id="Path-4-Copy-4" stroke="#383A48" stroke-width="3" stroke-linecap="round" transform="translate(76.551130, 10.600118) scale(-1, 1) translate(-76.551130, -10.600118) "></line>
            <line x1="37.4836569" y1="1.125026e-13" x2="39.0674734" y2="9.54010604" id="Path-4-Copy-2" stroke="#383A48" stroke-width="3" stroke-linecap="round"></line>
            <line x1="57.5453324" y1="-1.87504333e-15" x2="55.9615159" y2="9.01010015" id="Path-4-Copy-3" stroke="#383A48" stroke-width="3" stroke-linecap="round"></line>
        </g>
        <g id="Group-8" transform="translate(1202.000000, 38.000000)">
            <path d="M1.25216629,15.2375455 C14.4528326,11.2374387 28.7533771,9.01163148 44.1537998,8.56012391 C59.5542225,8.10861633 75.9253512,10.3344234 93.2671861,15.2375455 C80.7179795,29.9985781 65.0595361,37.3790944 46.2918559,37.3790944 C27.5241757,37.3790944 12.5109458,29.9985781 1.25216629,15.2375455 Z" id="Path-3" stroke="#383A48" stroke-width="3" fill="#FFFFFF" fill-rule="nonzero" stroke-linejoin="round"></path>
            <g id="Clipped" transform="translate(1.252166, 8.385427)">
                <mask id="mask-14" fill="white">
                    <use xlink:href="#path-13"></use>
                </mask>
                <g id="path-1"></g>
                <g id="Group" mask="url(#mask-14)">
                    <g transform="translate(24.189443, -13.801016)">
                        <path d="M21.5546965,9.25890953 C28.2874734,9.25890953 33.7454674,14.6556925 33.7454674,21.3129616 C33.7454674,27.9702307 28.2874734,33.3670136 21.5546965,33.3670136 C14.8219196,33.3670136 9.36392552,27.9702307 9.36392552,21.3129616 C9.36392552,14.6556925 14.8219196,9.25890953 21.5546965,9.25890953 Z M25.441609,13.9757125 C23.3925029,13.9757125 21.7313743,15.6182117 21.7313743,17.644337 C21.7313743,19.6704625 23.3925029,21.3129616 25.441609,21.3129616 C27.490715,21.3129616 29.1518436,19.6704625 29.1518436,17.644337 C29.1518436,15.6182117 27.490715,13.9757125 25.441609,13.9757125 Z" id="Combined-Shape" stroke="none" fill="#383A48" fill-rule="evenodd"></path>
                        <ellipse id="Oval" stroke="#383A48" stroke-width="3" fill="none" cx="21.3780186" cy="21.1382652" rx="21.2896797" ry="21.050917"></ellipse>
                    </g>
                </g>
            </g>
            <line x1="-4.8169039e-13" y1="6.28907062" x2="2.67656701" y2="10.4776624" id="Path-4" stroke="#383A48" stroke-width="3" stroke-linecap="round"></line>
            <line x1="18.727851" y1="2.44574969" x2="20.2112553" y2="6.85209915" id="Path-4-Copy" stroke="#383A48" stroke-width="3" stroke-linecap="round"></line>
            <line x1="90.9890876" y1="6.81315984" x2="93.2823557" y2="10.305714" id="Path-4-Copy-5" stroke="#383A48" stroke-width="3" stroke-linecap="round" transform="translate(92.135722, 8.559437) scale(-1, 1) translate(-92.135722, -8.559437) "></line>
            <line x1="75.26476" y1="2.44574969" x2="78.0570987" y2="6.85209915" id="Path-4-Copy-4" stroke="#383A48" stroke-width="3" stroke-linecap="round" transform="translate(76.660929, 4.648924) scale(-1, 1) translate(-76.660929, -4.648924) "></line>
            <line x1="35.335568" y1="1.54382002e-13" x2="36.3704358" y2="4.88638863" id="Path-4-Copy-2" stroke="#383A48" stroke-width="3" stroke-linecap="round"></line>
            <line x1="58.0997156" y1="0.174696406" x2="57.0669423" y2="4.75499055" id="Path-4-Copy-3" stroke="#383A48" stroke-width="3" stroke-linecap="round"></line>
        </g>
        <g id="Group-12" transform="translate(1602.000000, 38.000000)">
            <path d="M1.25216629,15.2375455 C14.4528326,11.2374387 28.7533771,9.01163148 44.1537998,8.56012391 C59.5542225,8.10861633 75.9253512,10.3344234 93.2671861,15.2375455 C80.7179795,29.9985781 65.0595361,37.3790944 46.2918559,37.3790944 C27.5241757,37.3790944 12.5109458,29.9985781 1.25216629,15.2375455 Z" id="Path-3" stroke="#383A48" stroke-width="3" fill="#FFFFFF" fill-rule="nonzero" stroke-linejoin="round"></path>
            <g id="Clipped" transform="translate(1.252166, 8.385427)">
                <mask id="mask-16" fill="white">
                    <use xlink:href="#path-15"></use>
                </mask>
                <g id="path-1"></g>
                <g id="Group" mask="url(#mask-16)">
                    <g transform="translate(24.189443, -13.801016)">
                        <path d="M21.5546965,9.25890953 C28.2874734,9.25890953 33.7454674,14.6556925 33.7454674,21.3129616 C33.7454674,27.9702307 28.2874734,33.3670136 21.5546965,33.3670136 C14.8219196,33.3670136 9.36392552,27.9702307 9.36392552,21.3129616 C9.36392552,14.6556925 14.8219196,9.25890953 21.5546965,9.25890953 Z M25.441609,13.9757125 C23.3925029,13.9757125 21.7313743,15.6182117 21.7313743,17.644337 C21.7313743,19.6704625 23.3925029,21.3129616 25.441609,21.3129616 C27.490715,21.3129616 29.1518436,19.6704625 29.1518436,17.644337 C29.1518436,15.6182117 27.490715,13.9757125 25.441609,13.9757125 Z" id="Combined-Shape" stroke="none" fill="#383A48" fill-rule="evenodd"></path>
                        <ellipse id="Oval" stroke="#383A48" stroke-width="3" fill="none" cx="21.3780186" cy="21.1382652" rx="21.2896797" ry="21.050917"></ellipse>
                    </g>
                </g>
            </g>
            <line x1="-4.88412729e-13" y1="6.28907062" x2="2.67656701" y2="10.4776624" id="Path-4" stroke="#383A48" stroke-width="3" stroke-linecap="round"></line>
            <line x1="18.727851" y1="2.44574969" x2="20.2112553" y2="6.85209915" id="Path-4-Copy" stroke="#383A48" stroke-width="3" stroke-linecap="round"></line>
            <line x1="90.9890876" y1="6.81315984" x2="93.2823557" y2="10.305714" id="Path-4-Copy-5" stroke="#383A48" stroke-width="3" stroke-linecap="round" transform="translate(92.135722, 8.559437) scale(-1, 1) translate(-92.135722, -8.559437) "></line>
            <line x1="75.26476" y1="2.44574969" x2="78.0570987" y2="6.85209915" id="Path-4-Copy-4" stroke="#383A48" stroke-width="3" stroke-linecap="round" transform="translate(76.660929, 4.648924) scale(-1, 1) translate(-76.660929, -4.648924) "></line>
            <line x1="35.335568" y1="1.54382002e-13" x2="36.3704358" y2="4.88638863" id="Path-4-Copy-2" stroke="#383A48" stroke-width="3" stroke-linecap="round"></line>
            <line x1="58.0997156" y1="0.174696406" x2="57.0669423" y2="4.75499055" id="Path-4-Copy-3" stroke="#383A48" stroke-width="3" stroke-linecap="round"></line>
        </g>
        <g id="Group-9" transform="translate(1302.000000, 55.000000)">
            <path d="M1.29170839,0.196387984 C14.9092379,3.88883294 29.6613785,5.49524517 45.5481303,5.01562466 C61.4348821,4.53600396 78.3229939,2.92959174 96.2124657,0.196387984 C83.2669683,15.8765101 67.1140478,23.7165712 47.753704,23.7165712 C28.3933602,23.7165712 12.9060283,15.8765101 1.29170839,0.196387984 Z" id="Path-3" stroke="#383A48" stroke-width="3" fill="#FFFFFF" fill-rule="nonzero" stroke-linejoin="round"></path>
            <g id="Clipped" transform="translate(1.291708, 0.155004)">
                <mask id="mask-18" fill="white">
                    <use xlink:href="#path-17"></use>
                </mask>
                <g id="path-1"></g>
                <g id="Group" mask="url(#mask-18)">
                    <g transform="translate(24.953320, -21.897709)">
                        <path d="M22.2353711,9.83541169 C29.180762,9.83541169 34.8111138,15.5682231 34.8111138,22.6400043 C34.8111138,29.7117855 29.180762,35.4445969 22.2353711,35.4445969 C15.2899802,35.4445969 9.65962843,29.7117855 9.65962843,22.6400043 C9.65962843,15.5682231 15.2899802,9.83541169 22.2353711,9.83541169 Z M26.2450282,14.8459044 C24.1312135,14.8459044 22.4176282,16.5906731 22.4176282,18.7429544 C22.4176282,20.8952356 24.1312135,22.6400043 26.2450282,22.6400043 C28.3588429,22.6400043 30.0724281,20.8952356 30.0724281,18.7429544 C30.0724281,16.5906731 28.3588429,14.8459044 26.2450282,14.8459044 Z" id="Combined-Shape" stroke="none" fill="#383A48" fill-rule="evenodd"></path>
                        <ellipse id="Oval" stroke="#383A48" stroke-width="3" fill="none" cx="22.053114" cy="22.4544305" rx="21.9619854" ry="22.3616436"></ellipse>
                    </g>
                </g>
            </g>
            <g id="Group-2" stroke-linecap="round" transform="translate(48.461538, 5.923077) scale(-1, 1) rotate(-180.000000) translate(-48.461538, -5.923077) " stroke="#383A48" stroke-width="3">
                <line x1="1.55725538e-13" y1="6.680657" x2="2.76109018" y2="11.1300498" id="Path-4"></line>
                <line x1="19.3192569" y1="2.59803328" x2="20.8495055" y2="7.27874224" id="Path-4-Copy"></line>
                <line x1="93.8624272" y1="7.23737842" x2="96.2281143" y2="10.947395" id="Path-4-Copy-5" transform="translate(95.045271, 9.092387) scale(-1, 1) translate(-95.045271, -9.092387) "></line>
                <line x1="77.6415419" y1="2.59803328" x2="80.5220597" y2="7.27874224" id="Path-4-Copy-4" transform="translate(79.081801, 4.938388) scale(-1, 1) translate(-79.081801, -4.938388) "></line>
                <line x1="36.451428" y1="5.92397173e-15" x2="37.5189759" y2="5.19063767" id="Path-4-Copy-2"></line>
                <line x1="59.9344435" y1="0.185573806" x2="58.8690563" y2="5.05105805" id="Path-4-Copy-3"></line>
            </g>
        </g>
        <g id="Group-11" transform="translate(1502.000000, 55.000000)">
            <path d="M1.29170839,0.0413838865 C14.9092379,3.73382885 29.6613785,5.34024107 45.5481303,4.86062056 C61.4348821,4.38099986 78.3229939,2.77458764 96.2124657,0.0413838865 C83.2669683,15.7215061 67.1140478,23.5615671 47.753704,23.5615671 C28.3933602,23.5615671 12.9060283,15.7215061 1.29170839,0.0413838865 Z" id="Path-3" stroke="#383A48" stroke-width="3" fill="#FFFFFF" fill-rule="nonzero" stroke-linejoin="round"></path>
            <g id="Clipped" transform="translate(1.291708, 0.000000)">
                <mask id="mask-20" fill="white">
                    <use xlink:href="#path-19"></use>
                </mask>
                <g id="path-1"></g>
                <g id="Group" mask="url(#mask-20)">
                    <g transform="translate(24.953320, -21.897709)">
                        <path d="M22.2353711,9.83541169 C29.180762,9.83541169 34.8111138,15.5682231 34.8111138,22.6400043 C34.8111138,29.7117855 29.180762,35.4445969 22.2353711,35.4445969 C15.2899802,35.4445969 9.65962843,29.7117855 9.65962843,22.6400043 C9.65962843,15.5682231 15.2899802,9.83541169 22.2353711,9.83541169 Z M26.2450282,14.8459044 C24.1312135,14.8459044 22.4176282,16.5906731 22.4176282,18.7429544 C22.4176282,20.8952356 24.1312135,22.6400043 26.2450282,22.6400043 C28.3588429,22.6400043 30.0724281,20.8952356 30.0724281,18.7429544 C30.0724281,16.5906731 28.3588429,14.8459044 26.2450282,14.8459044 Z" id="Combined-Shape" stroke="none" fill="#383A48" fill-rule="evenodd"></path>
                        <ellipse id="Oval" stroke="#383A48" stroke-width="3" fill="none" cx="22.053114" cy="22.4544305" rx="21.9619854" ry="22.3616436"></ellipse>
                    </g>
                </g>
            </g>
            <line x1="5.44009282e-13" y1="0.561099975" x2="2.76109018" y2="5.01049275" id="Path-4" stroke="#383A48" stroke-width="3" stroke-linecap="round" transform="translate(1.380545, 2.785796) scale(-1, 1) rotate(-180.000000) translate(-1.380545, -2.785796) "></line>
            <line x1="19.3192569" y1="4.41240751" x2="20.8495055" y2="9.09311647" id="Path-4-Copy" stroke="#383A48" stroke-width="3" stroke-linecap="round" transform="translate(20.084381, 6.752762) scale(-1, 1) rotate(-180.000000) translate(-20.084381, -6.752762) "></line>
            <line x1="93.8624272" y1="0.743754742" x2="96.2281143" y2="4.45377133" id="Path-4-Copy-5" stroke="#383A48" stroke-width="3" stroke-linecap="round" transform="translate(95.045271, 2.598763) rotate(-180.000000) translate(-95.045271, -2.598763) "></line>
            <line x1="77.6415419" y1="4.41240751" x2="80.5220597" y2="9.09311647" id="Path-4-Copy-4" stroke="#383A48" stroke-width="3" stroke-linecap="round" transform="translate(79.081801, 6.752762) rotate(-180.000000) translate(-79.081801, -6.752762) "></line>
            <line x1="36.451428" y1="6.50051208" x2="37.5189759" y2="11.6911497" id="Path-4-Copy-2" stroke="#383A48" stroke-width="3" stroke-linecap="round" transform="translate(36.985202, 9.095831) scale(-1, 1) rotate(-180.000000) translate(-36.985202, -9.095831) "></line>
            <line x1="59.9344435" y1="6.6400917" x2="58.8690563" y2="11.5055759" id="Path-4-Copy-3" stroke="#383A48" stroke-width="3" stroke-linecap="round" transform="translate(59.401750, 9.072834) scale(-1, 1) rotate(-180.000000) translate(-59.401750, -9.072834) "></line>
        </g>
        <g id="Group-10" transform="translate(1402.000000, 55.000000)" stroke="#383A48" stroke-width="3">
            <line x1="-3.27482815e-14" y1="8.73335258" x2="8.0319063" y2="15.2046796" id="Path-4" transform="translate(4.015953, 11.969016) scale(-1, 1) rotate(-180.000000) translate(-4.015953, -11.969016) "></line>
            <line x1="17.0087427" y1="19.5771978" x2="22.5208352" y2="27.7975321" id="Path-4-Copy" transform="translate(19.764789, 23.687365) scale(-1, 1) rotate(-180.000000) translate(-19.764789, -23.687365) "></line>
            <line x1="89.2958994" y1="8.03374966" x2="97.3278057" y2="14.5050767" id="Path-4-Copy-5" transform="translate(93.311853, 11.269413) rotate(-180.000000) translate(-93.311853, -11.269413) "></line>
            <line x1="75.5944122" y1="19.4022971" x2="81.1065047" y2="27.6226314" id="Path-4-Copy-4" transform="translate(78.350458, 23.512464) rotate(-180.000000) translate(-78.350458, -23.512464) "></line>
            <line x1="38.2696711" y1="24.649319" x2="40.3170198" y2="33.7441569" id="Path-4-Copy-2" transform="translate(39.293345, 29.196738) scale(-1, 1) rotate(-180.000000) translate(-39.293345, -29.196738) "></line>
            <line x1="59.5305996" y1="25.3489219" x2="57.4832509" y2="33.7441569" id="Path-4-Copy-3" transform="translate(58.506925, 29.546539) scale(-1, 1) rotate(-180.000000) translate(-58.506925, -29.546539) "></line>
            <path d="M8.27772399,6.50419889e-14 C18.7905015,14.6367301 32.0919258,21.9570538 48.1819968,21.9609729 C64.2720678,21.9648888 78.2665259,14.6445651 90.165371,6.50419889e-14" id="Path-5"></path>
        </g>
    </g>
</svg>