<?xml version="1.0" encoding="UTF-8"?>
<svg id="SVGRoot" width="500" height="134.38" version="1.1" viewBox="0 0 500 134.38066" xmlns="http://www.w3.org/2000/svg" xmlns:cc="http://creativecommons.org/ns#" xmlns:dc="http://purl.org/dc/elements/1.1/" xmlns:rdf="http://www.w3.org/1999/02/22-rdf-syntax-ns#"><metadata><rdf:RDF><cc:Work rdf:about=""><dc:format>image/svg+xml</dc:format><dc:type rdf:resource="http://purl.org/dc/dcmitype/StillImage"/><dc:title/></cc:Work></rdf:RDF></metadata><g transform="translate(-123.44 -184.37)"><path d="m228.55 305.47c17.934-13.613 28.372-36.105 25.491-60.074-4.2434-35.243-35.713-60.569-70.816-57.456 22.089 17.412 24.98 34.314 24.846 51.324-0.10324 12.255-2.6844 20.076 0.73305 36.642 2.4831 12.002 10.774 24.134 19.746 29.564" fill="#70c72d"/><path d="m132.26 220.36c-5.6114 9.6638-8.8224 20.887-8.8224 32.863 0 36.193 29.337 65.53 65.535 65.53 6.4838 0 12.746-0.93954 18.657-2.6896 0.10325-19.255-7.7899-31.769-18.073-38.913-12.436-8.6365-26.994-8.5178-40.885-22.26-8.2493-8.1667-14.552-18.817-16.411-34.531" fill="#b5d815"/><g fill="#42a430"><path d="m181.41 199.11s0.37169 3.371-0.5059 7.315c-7.7434-8.3836-23.194-8.2803-30.963-22.053-22.053 40.132 0.56269 75.813 43.25 77.161 8.079-25.047 5.9263-47.741-11.78-62.422"/><path d="m401.31 281.73c-8.1771 0-12.038-4.7132-12.09-9.7258-0.0826-7.3511 4.5944-10.846 15.425-12.307 7.1549-0.96535 15.363-1.8068 19.338-3.4226 0 14.692-10.727 25.455-22.673 25.455m27.004-55.835c-5.534-5.0074-12.926-7.315-22.244-7.4956-7.0414-0.13938-13.427 0.76918-17.036 1.8791-1.2854 0.3975-2.0288 1.2183-2.0288 2.6689v7.8106c0 1.8068 1.2441 2.5347 2.7876 2.1269 4.7648-1.2493 10.02-2.1836 16.344-2.0598 10.128 0.19616 16.013 4.7028 17.252 13.804-5.3998 2.0856-12.075 2.0907-22.905 3.9285-8.1358 1.3835-14.522 3.9853-18.481 8.27-3.7943 4.0989-5.7405 9.4728-5.7405 15.673 0 12.916 10.041 21.424 24.485 21.424 10.097 0 19.715-5.5701 23.938-12.87v4.0627c0 5.6424 4.6977 7.8518 12.302 7.0259v-41.794c0-12.338-2.8289-19.178-8.6726-24.454"/><path d="m511.62 249.71c2.0752-11.713 10.33-19.281 20.665-19.281 10.634 0 18.78 7.4802 20.123 19.281zm20.675-31.294c-19.116 0-34.283 16.432-34.283 37.927 0 22.373 15.244 37.618 36.585 37.618 7.0878 0 12.544-1.3628 15.678-2.9167 5.6424-2.8031 7.697-6.4477 5.6217-15.6-5.725 4.0318-12.482 6.4219-20.515 6.4219-11.001 0-21.506-5.9883-23.803-20.241h45.155c6.6542 0 8.7398-2.6637 8.7398-9.2302 0-16.23-11.502-33.978-33.178-33.978"/><path d="m608.85 251.2c-5.9831-2.2662-12.952-3.0819-19.111-4.9093-4.4447-1.3164-7.1085-3.6394-7.1085-7.0001 0-4.6151 4.5841-8.4971 11.951-8.4971 6.4374 0 11.125 1.8946 15.265 5.7198 1.5797 1.4661 2.545 1.5435 4.3828 0.20133 0 0 3.8872-2.8393 5.3843-4.0059 1.3938-1.0892 1.6313-2.3334 0.70723-3.5258-5.2346-6.7161-15.182-10.774-24.727-10.774-14.924 0-26.039 8.8172-26.039 21.362 0 8.5746 4.0472 13.556 9.9064 16.499 8.1564 4.104 17.603 4.8474 23.834 7.0104 5.152 1.7913 6.68 4.6822 6.68 8.1926 0 5.8798-5.6321 10.159-15.126 10.159-9.1063 0-17.294-3.2058-24.464-10.087-4.9093 6.6439-4.4396 11.45-0.8621 14.583 5.9108 5.1829 16.333 7.857 25.058 7.857 17.985 0 28.857-9.6845 28.857-22.977 0-11.027-6.3754-16.695-14.589-19.808"/><path d="m381.1 230.69v-8.0377c0-1.6881-0.85694-2.354-2.545-2.385-0.46461-5e-3 -1.2544 0-1.5384 0-9.5399 0-17.774 3.3452-22.058 10.108v-3.1232c0-5.6372-6.52-7.0259-12.297-7.0259v69.614c0 1.8842 1.3164 2.4676 2.9477 2.4676h7.1446c1.7139 0 3.0458-0.59882 3.0458-2.416v-32.724c0-9.6432 1.5022-14.423 6.3341-19.415 3.5723-3.6859 8.43-4.6564 13.974-4.6564h2.767c1.4041 0 2.225-0.7124 2.225-2.4056"/><path d="m302.89 281.84c-5.0745 0-10.8-2.3075-14.392-7.2943-2.767-3.8459-3.9698-8.6365-3.9698-15.926 0-5.5753 5e-3 -4.7648 0.0103-13.706 2.9115-7.697 10.232-14.3 18.842-14.3 12.642 0 20.241 10.547 20.241 25.569 0 15.353-7.8622 25.657-20.732 25.657m2.1785-63.45c-7.7383 0-15.244 3.0819-20.53 8.4765 5e-3 -12.059 5e-3 -24.686 5e-3 -30.096 0-6.3083-4.8371-9.0082-13.184-9.1682v68.638c-0.0155 15.776-2.2766 23.587-8.6675 33.839 7.1756 3.9337 13.458 3.278 17.619-7.9551 5.6217 8.1461 14.94 11.842 23.256 11.842 19.488 0 33.323-14.005 33.323-37.716 0-21.811-12.25-37.86-31.82-37.86"/><path d="m501.03 223.81c1.337-2.2972 0.10324-3.5465-1.4145-3.5465h-8.4094c-2.0236 0-4.0163-0.0981-5.4669 2.0288-6.4632 9.4522-17.103 16.581-27.019 19.539v-44.969c0-6.3083-4.8371-9.0082-13.19-9.1734v102.14c0 1.8842 1.3267 2.4727 2.958 2.4727h7.1653c1.719 0 3.0664-0.59882 3.0664-2.4211v-35.671c1.3112-0.34071 2.607-0.71756 3.8872-1.1357 7.6763 10.918 22.322 31.696 25.037 35.532 3.6446 5.1468 9.1528 4.5583 16.065-0.12906l-28.775-40.586c11.182-5.9057 20.35-14.186 26.095-24.082"/></g></g></svg>
