<?xml version="1.0" encoding="UTF-8"?>
<svg width="674px" height="114px" viewBox="0 0 674 114" version="1.1" xmlns="http://www.w3.org/2000/svg" xmlns:xlink="http://www.w3.org/1999/xlink">
    <title>Thank you</title>
    <g id="Thank-you" stroke="none" stroke-width="1" fill="none" fill-rule="evenodd">
        <path d="M34.2484869,105 L50.7847511,37.7326203 L57.8717215,37.7326203 L41.1104741,105 L61.3027152,105 L77.7827336,37.7326203 L85.3759162,37.7326203 L68.6709145,105 L89.031893,105 L104.949454,37.7326203 C106.486839,31.2566845 106.33685,26.8770053 104.499487,24.5935829 C102.437141,22.2727273 98.9311532,21.0748663 93.9815231,21 L93.9815231,21 L34.5297159,21 L14,105 L34.2484869,105 Z M136.493225,105 L140.581752,88.256 L121.03523,88.256 L125.515808,71.456 L144.782294,71.456 L148.926829,54.544 L129.884372,54.544 L133.9729,37.8 L153.239386,37.8 L158,21 L117.394761,21 L96,105 L136.493225,105 Z M180.140671,105 C184.520102,105 187.683024,104.119267 189.629438,102.357802 C191.276404,100.483903 192.58649,97.523142 193.559697,93.4755195 L193.559697,93.4755195 L202.823879,54.5171539 L175.5928,54.5171539 L179.523058,37.6520606 L186.709818,37.6520606 L184.688542,46.0846073 L204.901301,46.0846073 L208.045509,32.5363156 C208.344957,31.3370201 208.644405,29.9690736 208.943853,28.4324762 C209.093578,27.1207467 208.943853,25.9214512 208.494681,24.8345896 C207.970646,23.5978161 206.99744,22.6046495 205.57506,21.8550898 C203.928094,21.2179641 201.60737,20.9368792 198.612887,21.0118352 L198.612887,21.0118352 L174.301429,21.0118352 C169.697411,20.9368792 166.553204,21.9300458 164.868807,23.991335 C162.959825,26.2774921 161.574876,29.4443818 160.713962,33.4920042 L160.713962,33.4920042 L151.449781,71.4384642 L178.68086,71.4384642 L174.750601,88.1911236 L167.395402,88.1911236 L169.528972,79.8147939 L149.540798,79.8147939 L146.228151,92.6322649 C145.629254,96.2676294 146.209436,99.1721733 147.968694,101.345896 C149.915108,103.781965 152.666289,105 156.222238,105 L156.222238,105 L180.140671,105 Z M235.140671,105 C239.520102,105 242.683024,104.119267 244.629438,102.357802 C246.276404,100.483903 247.58649,97.523142 248.559697,93.4755195 L248.559697,93.4755195 L257.823879,54.5171539 L230.5928,54.5171539 L234.523058,37.6520606 L241.709818,37.6520606 L239.688542,46.0846073 L259.901301,46.0846073 L263.045509,32.5363156 C263.344957,31.3370201 263.644405,29.9690736 263.943853,28.4324762 C264.093578,27.1207467 263.943853,25.9214512 263.494681,24.8345896 C262.970646,23.5978161 261.99744,22.6046495 260.57506,21.8550898 C258.928094,21.2179641 256.60737,20.9368792 253.612887,21.0118352 L253.612887,21.0118352 L229.301429,21.0118352 C224.697411,20.9368792 221.553204,21.9300458 219.868807,23.991335 C217.959825,26.2774921 216.574876,29.4443818 215.713962,33.4920042 L215.713962,33.4920042 L206.449781,71.4384642 L233.68086,71.4384642 L229.750601,88.1911236 L222.395402,88.1911236 L224.528972,79.8147939 L204.540798,79.8147939 L201.228151,92.6322649 C200.629254,96.2676294 201.209436,99.1721733 202.968694,101.345896 C204.915108,103.781965 207.666289,105 211.222238,105 L211.222238,105 L235.140671,105 Z M300.383242,105 L317.129801,37.8 C318.137955,34.2906667 318.754049,31.4906667 318.978084,29.4 C319.090101,27.048 318.772719,25.2186667 318.025938,23.912 C317.241818,22.8293333 315.972291,22.064 314.217356,21.616 C312.649116,21.2053333 310.427443,21 307.552337,21 L307.552337,21 L285.204922,21 C280.425525,21 277.251706,21.9706667 275.683467,23.912 C274.115227,25.928 272.771022,28.7466667 271.65085,32.368 L271.65085,32.368 L253,104.832 L273.947201,105 L282.236468,71.512 L288.00535,71.512 L279.212006,105 L300.383242,105 Z M291.963636,55 L287,55 L290.545455,38 L296,38 L291.963636,55 Z M348.415633,104.915634 C350.51259,105.028122 352.328704,105.028122 353.863977,104.915634 C355.399249,104.69066 356.784738,104.24071 358.020445,103.565785 C359.18126,102.928356 360.211016,101.897221 361.109712,100.47238 C362.008408,99.0475393 362.832212,97.0040174 363.581125,94.3418145 L363.581125,94.3418145 L371.444714,62.9578172 L345.157861,62.9578172 L340.383539,80.5621024 L347.123758,80.5621024 L344.989355,88.2674925 L333.924162,88.2674925 L346.449736,37.7606294 L358.020445,37.7606294 L355.492863,47.9407432 L375.657351,47.9407432 L378.578112,34.2735186 C379.551699,29.3615668 378.840232,25.9119518 376.44371,23.9246736 C374.122079,21.9748912 370.826861,21 366.558055,21 L366.558055,21 L340.72055,21 C336.301962,21 333.156526,21.6561768 331.284243,22.9685303 C329.524297,24.2808838 328.157531,26.8493472 327.183944,30.6739203 L327.183944,30.6739203 L312.018451,90.2360228 C310.857636,94.848008 310.68913,98.4663542 311.512935,101.091061 C312.523968,103.753264 316.100028,105.028122 322.241117,104.915634 L322.241117,104.915634 L348.415633,104.915634 Z M407.493225,105 L411.581752,88.256 L392.03523,88.256 L396.515808,71.456 L415.782294,71.456 L419.926829,54.544 L400.884372,54.544 L404.9729,37.8 L424.239386,37.8 L429,21 L388.394761,21 L367,105 L407.493225,105 Z M487.140671,105 C491.520102,105 494.683024,104.119267 496.629438,102.357802 C498.276404,100.483903 499.58649,97.523142 500.559697,93.4755195 L500.559697,93.4755195 L509.823879,54.5171539 L482.5928,54.5171539 L486.523058,37.6520606 L493.709818,37.6520606 L491.688542,46.0846073 L511.901301,46.0846073 L515.045509,32.5363156 C515.344957,31.3370201 515.644405,29.9690736 515.943853,28.4324762 C516.093578,27.1207467 515.943853,25.9214512 515.494681,24.8345896 C514.970646,23.5978161 513.99744,22.6046495 512.57506,21.8550898 C510.928094,21.2179641 508.60737,20.9368792 505.612887,21.0118352 L505.612887,21.0118352 L481.301429,21.0118352 C476.697411,20.9368792 473.553204,21.9300458 471.868807,23.991335 C469.959825,26.2774921 468.574876,29.4443818 467.713962,33.4920042 L467.713962,33.4920042 L458.449781,71.4384642 L485.68086,71.4384642 L481.750601,88.1911236 L474.395402,88.1911236 L476.528972,79.8147939 L456.540798,79.8147939 L453.228151,92.6322649 C452.629254,96.2676294 453.209436,99.1721733 454.968694,101.345896 C456.915108,103.781965 459.666289,105 463.222238,105 L463.222238,105 L487.140671,105 Z M544.493225,105 L548.581752,88.256 L529.03523,88.256 L533.515808,71.456 L552.782294,71.456 L556.926829,54.544 L537.884372,54.544 L541.9729,37.8 L561.239386,37.8 L566,21 L525.394761,21 L504,105 L544.493225,105 Z M571.780628,105 L589.060173,37.6991328 L594.424737,37.6991328 L577.3146,105 L598.490512,105 L616.052402,36.8585724 C617.370014,31.6284189 617.313545,27.7058039 615.882995,25.0907272 C614.715967,22.4382922 611.19606,21.0747165 605.323273,21 L605.323273,21 L572.119443,21 L551,105 L571.780628,105 Z M638.099345,105 L654.579694,37.5752508 L664.879913,37.5752508 L669,21 L628.467249,21 L624.514192,37.5752508 L634.313319,37.5752508 L618,105 L638.099345,105 Z" id="blue" stroke="#3176FF" stroke-width="3" fill-rule="nonzero"></path>
    </g>
</svg>