<?xml version="1.0" encoding="UTF-8"?>
<svg width="674px" height="114px" viewBox="0 0 674 114" version="1.1" xmlns="http://www.w3.org/2000/svg" xmlns:xlink="http://www.w3.org/1999/xlink">
    <title>Thank you</title>
    <g id="Thank-you" stroke="none" stroke-width="1" fill="none" fill-rule="evenodd">
        <path d="M29.2484869,100 L45.7847511,32.7326203 L52.8717215,32.7326203 L36.1104741,100 L56.3027152,100 L72.7827336,32.7326203 L80.3759162,32.7326203 L63.6709145,100 L84.031893,100 L99.9494535,32.7326203 C101.486839,26.2566845 101.33685,21.8770053 99.4994871,19.5935829 C97.4371412,17.2727273 93.9311532,16.0748663 88.9815231,16 L88.9815231,16 L29.5297159,16 L9,100 L29.2484869,100 Z M131.493225,100 L135.581752,83.256 L116.03523,83.256 L120.515808,66.456 L139.782294,66.456 L143.926829,49.544 L124.884372,49.544 L128.9729,32.8 L148.239386,32.8 L153,16 L112.394761,16 L91,100 L131.493225,100 Z M175.140671,100 C179.520102,100 182.683024,99.1192673 184.629438,97.357802 C186.276404,95.4839028 187.58649,92.523142 188.559697,88.4755195 L188.559697,88.4755195 L197.823879,49.5171539 L170.5928,49.5171539 L174.523058,32.6520606 L181.709818,32.6520606 L179.688542,41.0846073 L199.901301,41.0846073 L203.045509,27.5363156 C203.344957,26.3370201 203.644405,24.9690736 203.943853,23.4324762 C204.093578,22.1207467 203.943853,20.9214512 203.494681,19.8345896 C202.970646,18.5978161 201.99744,17.6046495 200.57506,16.8550898 C198.928094,16.2179641 196.60737,15.9368792 193.612887,16.0118352 L193.612887,16.0118352 L169.301429,16.0118352 C164.697411,15.9368792 161.553204,16.9300458 159.868807,18.991335 C157.959825,21.2774921 156.574876,24.4443818 155.713962,28.4920042 L155.713962,28.4920042 L146.449781,66.4384642 L173.68086,66.4384642 L169.750601,83.1911236 L162.395402,83.1911236 L164.528972,74.8147939 L144.540798,74.8147939 L141.228151,87.6322649 C140.629254,91.2676294 141.209436,94.1721733 142.968694,96.3458964 C144.915108,98.7819655 147.666289,100 151.222238,100 L151.222238,100 L175.140671,100 Z M230.140671,100 C234.520102,100 237.683024,99.1192673 239.629438,97.357802 C241.276404,95.4839028 242.58649,92.523142 243.559697,88.4755195 L243.559697,88.4755195 L252.823879,49.5171539 L225.5928,49.5171539 L229.523058,32.6520606 L236.709818,32.6520606 L234.688542,41.0846073 L254.901301,41.0846073 L258.045509,27.5363156 C258.344957,26.3370201 258.644405,24.9690736 258.943853,23.4324762 C259.093578,22.1207467 258.943853,20.9214512 258.494681,19.8345896 C257.970646,18.5978161 256.99744,17.6046495 255.57506,16.8550898 C253.928094,16.2179641 251.60737,15.9368792 248.612887,16.0118352 L248.612887,16.0118352 L224.301429,16.0118352 C219.697411,15.9368792 216.553204,16.9300458 214.868807,18.991335 C212.959825,21.2774921 211.574876,24.4443818 210.713962,28.4920042 L210.713962,28.4920042 L201.449781,66.4384642 L228.68086,66.4384642 L224.750601,83.1911236 L217.395402,83.1911236 L219.528972,74.8147939 L199.540798,74.8147939 L196.228151,87.6322649 C195.629254,91.2676294 196.209436,94.1721733 197.968694,96.3458964 C199.915108,98.7819655 202.666289,100 206.222238,100 L206.222238,100 L230.140671,100 Z M294.383242,100 L311.129801,32.8 C312.137955,29.2906667 312.754049,26.4906667 312.978084,24.4 C313.090101,22.048 312.772719,20.2186667 312.025938,18.912 C311.241818,17.8293333 309.972291,17.064 308.217356,16.616 C306.649116,16.2053333 304.427443,16 301.552337,16 L301.552337,16 L279.204922,16 C274.425525,16 271.251706,16.9706667 269.683467,18.912 C268.115227,20.928 266.771022,23.7466667 265.65085,27.368 L265.65085,27.368 L247,99.832 L267.947201,100 L276.236468,66.512 L282.00535,66.512 L273.212006,100 L294.383242,100 Z M286.963636,50 L282,50 L285.545455,33 L291,33 L286.963636,50 Z M342.415633,99.9156344 C344.51259,100.028122 346.328704,100.028122 347.863977,99.9156344 C349.399249,99.6906595 350.784738,99.2407097 352.020445,98.5657851 C353.18126,97.9283562 354.211016,96.8972213 355.109712,95.4723803 C356.008408,94.0475393 356.832212,92.0040174 357.581125,89.3418145 L357.581125,89.3418145 L365.444714,57.9578172 L339.157861,57.9578172 L334.383539,75.5621024 L341.123758,75.5621024 L338.989355,83.2674925 L327.924162,83.2674925 L340.449736,32.7606294 L352.020445,32.7606294 L349.492863,42.9407432 L369.657351,42.9407432 L372.578112,29.2735186 C373.551699,24.3615668 372.840232,20.9119518 370.44371,18.9246736 C368.122079,16.9748912 364.826861,16 360.558055,16 L360.558055,16 L334.72055,16 C330.301962,16 327.156526,16.6561768 325.284243,17.9685303 C323.524297,19.2808838 322.157531,21.8493472 321.183944,25.6739203 L321.183944,25.6739203 L306.018451,85.2360228 C304.857636,89.848008 304.68913,93.4663542 305.512935,96.0910613 C306.523968,98.7532641 310.100028,100.028122 316.241117,99.9156344 L316.241117,99.9156344 L342.415633,99.9156344 Z M402.493225,100 L406.581752,83.256 L387.03523,83.256 L391.515808,66.456 L410.782294,66.456 L414.926829,49.544 L395.884372,49.544 L399.9729,32.8 L419.239386,32.8 L424,16 L383.394761,16 L362,100 L402.493225,100 Z M481.140671,100 C485.520102,100 488.683024,99.1192673 490.629438,97.357802 C492.276404,95.4839028 493.58649,92.523142 494.559697,88.4755195 L494.559697,88.4755195 L503.823879,49.5171539 L476.5928,49.5171539 L480.523058,32.6520606 L487.709818,32.6520606 L485.688542,41.0846073 L505.901301,41.0846073 L509.045509,27.5363156 C509.344957,26.3370201 509.644405,24.9690736 509.943853,23.4324762 C510.093578,22.1207467 509.943853,20.9214512 509.494681,19.8345896 C508.970646,18.5978161 507.99744,17.6046495 506.57506,16.8550898 C504.928094,16.2179641 502.60737,15.9368792 499.612887,16.0118352 L499.612887,16.0118352 L475.301429,16.0118352 C470.697411,15.9368792 467.553204,16.9300458 465.868807,18.991335 C463.959825,21.2774921 462.574876,24.4443818 461.713962,28.4920042 L461.713962,28.4920042 L452.449781,66.4384642 L479.68086,66.4384642 L475.750601,83.1911236 L468.395402,83.1911236 L470.528972,74.8147939 L450.540798,74.8147939 L447.228151,87.6322649 C446.629254,91.2676294 447.209436,94.1721733 448.968694,96.3458964 C450.915108,98.7819655 453.666289,100 457.222238,100 L457.222238,100 L481.140671,100 Z M538.493225,100 L542.581752,83.256 L523.03523,83.256 L527.515808,66.456 L546.782294,66.456 L550.926829,49.544 L531.884372,49.544 L535.9729,32.8 L555.239386,32.8 L560,16 L519.394761,16 L498,100 L538.493225,100 Z M565.780628,100 L583.060173,32.6991328 L588.424737,32.6991328 L571.3146,100 L592.490512,100 L610.052402,31.8585724 C611.370014,26.6284189 611.313545,22.7058039 609.882995,20.0907272 C608.715967,17.4382922 605.19606,16.0747165 599.323273,16 L599.323273,16 L566.119443,16 L545,100 L565.780628,100 Z M632.099345,100 L648.579694,32.5752508 L658.879913,32.5752508 L663,16 L622.467249,16 L618.514192,32.5752508 L628.313319,32.5752508 L612,100 L632.099345,100 Z" id="red" stroke="#FF5C7B" stroke-width="3" fill-rule="nonzero"></path>
    </g>
</svg>