<?xml version="1.0" encoding="UTF-8"?>
<svg width="200px" height="200px" viewBox="0 0 200 200" version="1.1" xmlns="http://www.w3.org/2000/svg" xmlns:xlink="http://www.w3.org/1999/xlink">
    <title>Artboard Copy</title>
    <g id="Artboard-Copy" stroke="none" stroke-width="1" fill="none" fill-rule="evenodd">
        <rect fill="#383A48" x="0" y="0" width="200" height="200"></rect>
        <g id="react" transform="translate(11.000000, 21.000000)" fill="#FFFFFF" fill-rule="nonzero">
            <path d="M178,79.0180819 C178,67.2648203 163.233184,56.1263447 140.593151,49.2190433 C145.817774,26.2188144 143.49572,7.91989014 133.264166,2.06134127 C130.90583,0.687113756 128.14839,0.0361638819 125.136975,0.0361638819 L125.136975,8.10070954 C126.805952,8.10070954 128.14839,8.42618448 129.273135,9.04097047 C134.207501,11.8617533 136.348145,22.6024262 134.679168,36.4170291 C134.280065,39.816434 133.626987,43.3966583 132.828781,47.0492103 C125.717489,45.313344 117.953119,43.9752804 109.789645,43.1073472 C104.891561,36.4170291 99.8120669,30.3414969 94.6962903,25.0254063 C106.524256,14.0677501 117.62658,8.06454566 125.173257,8.06454566 L125.173257,0 C125.173257,0 125.173257,0 125.173257,0 C115.195679,0 102.134121,7.08812085 88.9274358,19.3838407 C75.7207501,7.16044862 62.6591928,0.144655528 52.6816143,0.144655528 L52.6816143,8.20920119 C60.1920098,8.20920119 71.3306156,14.1762417 83.1585813,25.0615702 C78.0790868,30.3776608 72.9995923,36.4170291 68.1740726,43.1073472 C59.9743172,43.9752804 52.209947,45.313344 45.0986547,47.0853742 C44.2641663,43.468986 43.6473706,39.9610895 43.2119853,36.5978485 C41.5067265,22.7832456 43.6110885,12.0425727 48.5091724,9.185626 C49.5976355,8.53467613 51.0126376,8.24536507 52.6816143,8.24536507 L52.6816143,0.180819409 C52.6816143,0.180819409 52.6816143,0.180819409 52.6816143,0.180819409 C49.6339177,0.180819409 46.8764778,0.831769284 44.4818589,2.2059968 C34.2865879,8.06454566 32.0008153,26.327306 37.2617203,49.2552071 C14.6942519,56.1986725 0,67.3009842 0,79.0180819 C0,90.7713436 14.7668161,101.909819 37.4068488,108.817121 C32.1822258,131.81735 34.5042805,150.116274 44.7358337,155.974823 C47.0941704,157.34905 49.8516103,158 52.899307,158 C62.8768854,158 75.9384427,150.911879 89.1451284,138.616159 C102.351814,150.839551 115.413371,157.855344 125.39095,157.855344 C128.438647,157.855344 131.196086,157.204395 133.590705,155.830167 C143.785976,149.971618 146.071749,131.708858 140.810844,108.780957 C163.305748,101.873655 178,90.7351797 178,79.0180819 Z M131,54.8333333 C129.646341,59.4599156 127.963415,64.2299578 126.060976,69 C124.560976,66.1308017 122.987805,63.2616034 121.268293,60.3924051 C119.585366,57.5232068 117.792683,54.7257384 116,52 C121.195122,52.7531646 126.207317,53.685654 131,54.8333333 Z M114.525,93.4092616 C111.708333,98.3091364 108.819444,102.954944 105.822222,107.274093 C100.441667,107.745932 94.9888889,108 89.5,108 C84.0472222,108 78.5944444,107.745932 73.25,107.310388 C70.2527778,102.991239 67.3277778,98.3817272 64.5111111,93.5181477 C61.7666667,88.7634543 59.275,83.9361702 57,79.0725907 C59.2388889,74.2090113 61.7666667,69.3454318 64.475,64.5907384 C67.2916667,59.6908636 70.1805556,55.0450563 73.1777778,50.7259074 C78.5583333,50.2540676 84.0111111,50 89.5,50 C94.9527778,50 100.405556,50.2540676 105.75,50.689612 C108.747222,55.008761 111.672222,59.6182728 114.488889,64.4818523 C117.233333,69.2365457 119.725,74.0638298 122,78.9274093 C119.725,83.7909887 117.233333,88.6545682 114.525,93.4092616 Z M125.975728,89 C127.941748,93.7656904 129.616505,98.5313808 131,103.154812 C126.230583,104.292887 121.206311,105.253138 116,106 C117.783981,103.261506 119.567961,100.451883 121.242718,97.5711297 C122.917476,94.7259414 124.48301,91.8451883 125.975728,89 Z M89.0542495,127 C85.6907776,123.4 82.3273056,119.3875 79,115 C82.2549729,115.15 85.5822785,115.2625 88.9457505,115.2625 C92.3453888,115.2625 95.7088608,115.1875 99,115 C95.7450271,119.3875 92.3815552,123.4 89.0542495,127 Z M62,106 C56.804878,105.246835 51.7926829,104.314346 47,103.166667 C48.3536585,98.5400844 50.0365854,93.7700422 51.9390244,89 C53.4390244,91.8691983 55.0121951,94.7383966 56.7317073,97.6075949 C58.4512195,100.476793 60.2073171,103.274262 62,106 Z M88.9457505,30 C92.3092224,33.6 95.6726944,37.6125 99,42 C95.7450271,41.85 92.4177215,41.7375 89.0542495,41.7375 C85.6546112,41.7375 82.2911392,41.8125 79,42 C82.2549729,37.6125 85.6184448,33.6 88.9457505,30 Z M62,52 C60.2160194,54.7442348 58.4320388,57.5597484 56.7572816,60.4465409 C55.0825243,63.2976939 53.5169903,66.148847 52.0242718,69 C50.0582524,64.2243187 48.3834951,59.4486373 47,54.8155136 C51.7694175,53.7106918 56.7936893,52.7484277 62,52 Z M28.9557604,97.3061728 C16.2313364,91.8378601 8,84.6674897 8,78.981893 C8,73.2962963 16.2313364,66.0897119 28.9557604,60.6576132 C32.0470046,59.3176955 35.4258065,58.1226337 38.9124424,57 C40.9612903,64.0979424 43.6571429,71.4855967 47,79.054321 C43.6930876,86.5868313 41.0331797,93.9382716 39.0202765,101 C35.4617512,99.8773663 32.0829493,98.6460905 28.9557604,97.3061728 Z M49.0329147,149.023191 C44.0428585,146.201299 41.8780547,135.456401 43.5658678,121.636364 C43.9694753,118.235622 44.6299239,114.653989 45.4371389,111 C52.6286905,112.736549 60.4806908,114.075139 68.7362986,114.943414 C73.6896632,121.636364 78.8264858,127.714286 84,133.032468 C72.0385417,143.994434 60.8109151,150 53.1790644,150 C51.5279428,149.963822 50.1336624,149.638219 49.0329147,149.023191 Z M135.408826,121.557209 C137.133817,135.415814 135.005105,146.190698 130.050344,149.056744 C128.949286,149.709767 127.517911,150 125.829622,150 C118.232323,150 106.96483,144.013953 95,133.093953 C100.13827,127.76093 105.276541,121.702326 110.157898,114.990698 C118.452534,114.12 126.306747,112.777674 133.500326,111 C134.34447,114.664186 135.005105,118.183256 135.408826,121.557209 Z M149.027624,97.3423868 C145.939227,98.6823045 142.563536,99.8773663 139.08011,101 C137.033149,93.9020576 134.339779,86.5144033 131,78.945679 C134.303867,71.4131687 136.961326,64.0617284 138.972376,57 C142.527624,58.1226337 145.903315,59.3539095 149.063536,60.6938272 C161.776243,66.1621399 170,73.3325103 170,79.018107 C169.964088,84.7037037 161.740331,91.9102881 149.027624,97.3423868 Z" id="Shape"></path>
            <circle id="Oval" cx="88.9593496" cy="78.8211382" r="18.5772358"></circle>
        </g>
    </g>
</svg>