<?xml version="1.0" encoding="UTF-8"?>
<svg width="200px" height="200px" viewBox="0 0 200 200" version="1.1" xmlns="http://www.w3.org/2000/svg" xmlns:xlink="http://www.w3.org/1999/xlink">
    <title>Artboard Copy 2</title>
    <g id="Artboard-Copy-2" stroke="none" stroke-width="1" fill="none" fill-rule="evenodd">
        <rect fill="#383A48" x="0" y="0" width="200" height="200"></rect>
        <g id="redux" transform="translate(17.000000, 22.000000)" fill="#FFFFFF" fill-rule="nonzero">
            <path d="M115.020477,110.345935 C121.146265,109.710123 125.793617,104.415588 125.582226,98.0613659 C125.371484,91.707794 120.089961,86.6245464 113.752781,86.6245464 L113.330649,86.6245464 C106.78143,86.8364838 101.711946,92.3429561 101.923337,98.9084655 C102.134728,102.085577 103.401774,104.838813 105.302993,106.744949 C98.1208997,120.935655 87.1363692,131.313438 70.6595735,139.997021 C59.4636524,145.927368 47.8455985,148.045442 36.2275446,146.56318 C26.7214515,145.292206 19.3279676,141.056708 14.679968,134.066674 C7.92065592,123.688891 7.28713253,112.463359 12.9907884,101.238477 C17.0046162,93.1900557 23.3411471,87.2597085 27.3549749,84.2945349 C26.5100609,81.5412987 25.2423657,76.881926 24.6088423,73.4935277 C-6.02139781,95.7320046 -2.85248397,125.806965 6.44221852,139.997021 C13.4129212,150.587391 27.5663655,157.1529 43.1982473,157.1529 C47.4228173,157.1529 51.6473873,156.729026 55.8726058,155.670639 C82.9117992,150.375454 103.402423,134.278611 115.020477,110.345935 Z M152.199287,84.0832476 C136.144624,65.233169 112.485735,54.8553865 85.4465412,54.8553865 L82.0668852,54.8553865 C80.1656666,51.0431133 76.1518387,48.5011644 71.7158781,48.5011644 L71.2930969,48.5011644 C64.7451755,48.7131019 59.6756914,54.2195742 59.8864336,60.7857337 C60.0978242,67.1393056 65.3786989,72.2225532 71.7158781,72.2225532 L72.1380109,72.2225532 C76.7853621,72.0106158 80.79919,69.0454422 82.489018,65.0212316 L86.2914552,65.0212316 C102.346118,65.0212316 117.555219,69.6806044 131.28653,78.7880626 C141.84828,85.7774468 149.453154,94.884905 153.677724,105.89785 C157.268771,114.79337 157.05738,123.476954 153.254943,130.890213 C147.340545,142.115095 137.412319,148.25738 124.315179,148.25738 C115.865391,148.25738 107.838383,145.715431 103.613165,143.809294 C101.289814,145.927368 97.0645951,149.315767 94.1070719,151.434491 C103.191032,155.669989 112.485735,158 121.357656,158 C141.636889,158 156.635247,146.774468 162.338903,135.549586 C168.464692,123.265016 168.041911,102.085577 152.199287,84.0832476 L152.199287,84.0832476 Z M44.8880753,113.945621 C45.0994659,120.299843 50.3803405,125.38244 56.7175198,125.38244 L57.140301,125.38244 C63.6888709,125.171153 68.7583549,119.664031 68.5469643,113.098521 C68.3362221,106.744299 63.054699,101.661702 56.7175198,101.661702 L56.295387,101.661702 C55.8726058,101.661702 55.2384339,101.661702 54.8169496,101.872989 C46.1557705,87.4709958 42.5647239,71.7986784 43.8324191,54.8547364 C44.6766847,42.1469424 48.9019031,31.1333476 56.295387,22.0258894 C62.4211756,14.1894056 74.2506201,10.3771324 82.2782758,10.1658451 C104.66947,9.74197026 114.174914,37.698857 114.809086,48.9243892 C117.555219,49.5595513 122.20257,51.0424632 125.371484,52.1015002 C122.836093,17.7910416 101.711946,0 81.4333618,0 C62.4211756,0 44.8880753,13.766831 37.9167242,34.0991713 C28.1998889,61.2089584 34.5370682,87.2597085 46.3665127,107.803986 C45.3108565,109.286248 44.6766847,111.616259 44.8880753,113.946271 L44.8880753,113.945621 Z" id="Shape"></path>
        </g>
    </g>
</svg>