<?xml version="1.0" encoding="UTF-8"?>
<svg width="56px" height="28px" viewBox="0 0 56 28" version="1.1" xmlns="http://www.w3.org/2000/svg" xmlns:xlink="http://www.w3.org/1999/xlink">
    <title>Artboard</title>
    <g id="Artboard" stroke="none" stroke-width="1" fill="none" fill-rule="evenodd">
        <g id="endless-clouds" fill="#6D98EE" fill-rule="nonzero">
            <path d="M56,26 L56,28 L48.25,28 C50.55,26.73 53.19,26 56,26 Z M30,28 C30,26.8954305 29.1045695,26 28,26 C26.8954305,26 26,26.8954305 26,28 L21.91,28 C17.1351772,20.5208272 8.87338391,15.9958833 -5.89805982e-16,16 L-5.89805982e-16,14 C0.67,14 1.34,14.02 2,14.07 L2,14 C2,12.8954305 1.1045695,12 -5.89805982e-16,12 L-5.89805982e-16,10 C2.05426131,9.99997419 3.77457387,11.5560358 3.98,13.6 C4.80223536,12.2362939 5.73894309,10.9449754 6.78,9.74 C5.31404651,7.40980492 2.75296569,5.99705532 -5.89805982e-16,6 L-5.89805982e-16,4 C3.24917585,3.99748354 6.29660173,5.57528176 8.17,8.23 C9.11,7.28 10.13,6.4 11.2,5.6 C8.55811493,2.07223128 4.40734601,-0.0031531728 -5.89805982e-16,0 L7.75,0 C9.75,1.1 11.48,2.63 12.85,4.45 C13.97,3.73 15.15,3.08 16.38,2.52 C15.7498273,1.62418782 15.047489,0.781381903 14.28,-2.23150491e-15 L16.98,-2.23150491e-15 C17.43,0.56 17.86,1.14 18.27,1.74 C19.57,1.26 20.9,0.87 22.27,0.59 C22.16,0.39 22.04,0.19 21.91,-2.10942375e-15 L26,-2.10942375e-15 L26,0.07 C27.3316761,-0.0240134195 28.6683239,-0.0240134195 30,0.07 L30,0 L34.09,0 L33.72,0.59 C35.1,0.87 36.44,1.26 37.73,1.74 C38.13,1.14 38.57,0.56 39.03,-2.22044605e-16 L41.72,-2.22044605e-16 C40.952511,0.781381903 40.2501727,1.62418782 39.62,2.52 C40.85,3.08 42.03,3.72 43.16,4.45 C44.5221307,2.62270958 46.2571426,1.1058524 48.25,1.7852473e-15 L56,1.7852473e-15 C51.42,1.7852473e-15 47.35,2.2 44.8,5.6 C45.87,6.4 46.89,7.28 47.83,8.23 C49.7033983,5.57528176 52.7508242,3.99748354 56,4 L56,6 C53.2505887,6.00049493 50.6940615,7.41281575 49.23,9.74 C50.26,10.94 51.2,12.24 52.02,13.6 C52.2254261,11.5560358 53.9457387,9.99997419 56,10 L56,12 C55.457213,11.9996674 54.9376022,12.2199628 54.5604507,12.6103147 C54.1832991,13.0006665 53.9810023,13.5275454 54,14.07 C54.6656373,14.0231781 55.332718,13.9998302 56,14 L56,16 C46.8,16 38.7,20.78 34.09,28 L30,28 Z M7.75,28 L-1.45716772e-16,28 L-1.45716772e-16,26 C2.81,26 5.46,26.73 7.75,28 Z M56,20 L56,22 C50.4,22 45.35,24.3 41.72,28 L39.02,28 C43.06,23.11 49.17,20 56,20 Z M16.97,28 L14.28,28 C10.65,24.3 5.6,22 -5.89805982e-16,22 L-5.89805982e-16,20 C6.83,20 12.94,23.11 16.97,28 Z M31.98,27.6 C32.8022354,26.2362939 33.7389431,24.9449754 34.78,23.74 C33.3163481,21.4091447 30.7573015,19.994336 28.005,19.994336 C25.2526985,19.994336 22.6936519,21.4091447 21.23,23.74 C22.26,24.94 23.2,26.24 24.02,27.6 C24.2251865,25.5558376 25.9455655,23.9994997 28,23.9994997 C30.0544345,23.9994997 31.7748135,25.5558376 31.98,27.6 L31.98,27.6 Z M46.27,15.74 C47.57,15.26 48.9,14.87 50.27,14.59 C45.5704378,6.77229008 37.116539,1.99046209 27.995,1.99046209 C18.873461,1.99046209 10.4195622,6.77229008 5.72,14.59 C7.1,14.87 8.44,15.26 9.73,15.74 C13.8092346,9.64115863 20.6626966,5.97996318 28,5.97996318 C35.3373034,5.97996318 42.1907654,9.64115863 46.27,15.74 L46.27,15.74 Z M40.84,18.45 C41.97,17.73 43.14,17.08 44.38,16.52 C40.6425036,11.1690426 34.526992,7.98097898 28,7.98097898 C21.473008,7.98097898 15.3574964,11.1690426 11.62,16.52 C12.85,17.08 14.03,17.72 15.16,18.45 C18.1738832,14.3820123 22.9371929,11.9828755 28,11.9828755 C33.0628071,11.9828755 37.8261168,14.3820123 40.84,18.45 L40.84,18.45 Z M36.17,22.23 C37.11,21.28 38.13,20.4 39.2,19.6 C36.5609199,16.0671896 32.4097044,13.9866242 28,13.9866242 C23.5902956,13.9866242 19.4390801,16.0671896 16.8,19.6 C17.87,20.4 18.89,21.28 19.83,22.23 C21.7009847,19.5711204 24.7488119,17.9890173 28,17.9890173 C31.2511881,17.9890173 34.2990153,19.5711204 36.17,22.23 Z" id="Shape"></path>
        </g>
    </g>
</svg>