<?xml version="1.0" encoding="UTF-8"?>
<svg width="43px" height="55px" viewBox="0 0 43 55" version="1.1" xmlns="http://www.w3.org/2000/svg" xmlns:xlink="http://www.w3.org/1999/xlink">
    <title>Artboard</title>
    <g id="Artboard" stroke="none" stroke-width="1" fill="none" fill-rule="evenodd">
        <g id="kiwi-2" fill="#AECE2E">
            <path d="M1.26470587,7.75 C0.91058823,6.9375 0.480588232,6.175 0,5.45 L0,22.05 C0.480588232,21.325 0.91058823,20.55 1.26470587,19.75 C2.79997541,23.2156 5.59951056,25.9825824 9.1058823,27.5 C5.59951056,29.0174176 2.79997541,31.7844 1.26470587,35.25 C0.91058823,34.4375 0.480588232,33.675 0,32.95 L0,49.55 C0.480588232,48.825 0.91058823,48.05 1.26470587,47.25 C2.79997541,50.7156 5.59951056,53.4825824 9.1058823,55 L36.4235292,55 C39.0986563,53.8435232 41.3813417,51.9518344 43,49.55 L43,32.95 C41.3813417,30.5481656 39.0986563,28.6564768 36.4235292,27.5 C39.0986563,26.3435232 41.3813417,24.4518344 43,22.05 L43,5.45 C41.3813417,3.04816556 39.0986563,1.15647678 36.4235292,0 L9.1058823,0 C5.59951056,1.51741758 2.79997541,4.28440001 1.26470587,7.75 Z M21.955294,28.75 L15.1764705,28.75 C10.6581115,28.75 6.48297563,31.1324864 4.22379612,34.9999999 C1.9646166,38.8675134 1.9646166,43.6324866 4.22379612,47.5000001 C6.48297563,51.3675136 10.6581115,53.75 15.1764705,53.75 L21.955294,53.75 C17.7106845,50.9747803 15.1576791,46.2801091 15.1576791,41.25 C15.1576791,36.2198909 17.7106845,31.5252197 21.955294,28.75 L21.955294,28.75 Z M23.5741175,26.25 L30.352941,26.25 C37.3377187,26.25 42.9999997,20.6535594 42.9999997,13.75 C42.9999997,6.84644063 37.3377187,1.25 30.352941,1.25 L23.5741175,1.25 C27.818727,4.0252197 30.3717323,8.71989095 30.3717323,13.75 C30.3717323,18.7801091 27.818727,23.4747803 23.5741175,26.25 Z M15.1764705,1.25 C8.19169282,1.25 2.52941175,6.84644063 2.52941175,13.75 C2.52941175,20.6535594 8.19169282,26.25 15.1764705,26.25 C22.1612482,26.25 27.8235292,20.6535594 27.8235292,13.75 C27.8235292,6.84644063 22.1612482,1.25 15.1764705,1.25 Z M15.1764705,18.75 C13.779515,18.75 12.6470587,19.8692881 12.6470587,21.25 C12.6470587,22.6307119 13.779515,23.75 15.1764705,23.75 C16.573426,23.75 17.7058822,22.6307119 17.7058822,21.25 C17.7058822,19.8692881 16.573426,18.75 15.1764705,18.75 Z M10.8005882,16.25 C10.3487523,15.4751802 9.51301421,14.9974659 8.6081884,14.9968067 C7.70336258,14.9961488 6.86691359,15.4726461 6.41392368,16.2468074 C5.96093376,17.0209686 5.96022287,17.9751803 6.41205878,18.75 C7.11053657,19.9477675 8.65917041,20.3591059 9.87102931,19.6687499 C11.0828882,18.978394 11.4990659,17.4477675 10.8005882,16.25 L10.8005882,16.25 Z M10.8005882,11.25 C11.2524241,10.4751803 11.2517132,9.52096861 10.7987233,8.74680738 C10.3457333,7.97264615 9.50928436,7.49614884 8.60445855,7.49680669 C7.69963274,7.49746591 6.86389467,7.97518024 6.41205878,8.75 C5.71358105,9.94776755 6.12975872,11.478394 7.34161763,12.16875 C8.55347654,12.8591059 10.1021104,12.4477675 10.8005882,11.25 L10.8005882,11.25 Z M15.1764705,8.75 C16.573426,8.75 17.7058822,7.63071187 17.7058822,6.25 C17.7058822,4.86928813 16.573426,3.75 15.1764705,3.75 C13.779515,3.75 12.6470587,4.86928813 12.6470587,6.25 C12.6470587,7.63071187 13.779515,8.75 15.1764705,8.75 Z M19.5523528,11.25 C20.0041887,12.0248198 20.8399268,12.5025341 21.7447526,12.5031933 C22.6495784,12.5038512 23.4860274,12.0273539 23.9390173,11.2531926 C24.3920072,10.4790314 24.3927181,9.52481975 23.9408822,8.75 C23.2424044,7.55223245 21.6937706,7.14089406 20.4819116,7.83125 C19.2700527,8.52160594 18.8538751,10.0522324 19.5523528,11.25 L19.5523528,11.25 Z M19.5523528,16.25 C19.1005169,17.0248197 19.1012278,17.9790314 19.5542177,18.7531926 C20.0072076,19.5273539 20.8436566,20.0038512 21.7484824,20.0031933 C22.6533083,20.0025341 23.4890463,19.5248198 23.9408822,18.75 C24.63936,17.5522324 24.2231823,16.0216059 23.0113234,15.33125 C21.7994645,14.6408941 20.2508306,15.0522324 19.5523528,16.25 L19.5523528,16.25 Z M30.352941,53.75 C34.8713,53.75 39.0464359,51.3675136 41.3056154,47.5000001 C43.5647949,43.6324866 43.5647949,38.8675134 41.3056154,34.9999999 C39.0464359,31.1324864 34.8713,28.75 30.352941,28.75 C23.3681634,28.75 17.7058825,34.3464407 17.7058825,41.25 C17.7058825,48.1535593 23.3681634,53.75 30.352941,53.75 L30.352941,53.75 Z M30.352941,36.25 C31.7498965,36.25 32.8823527,35.1307119 32.8823527,33.75 C32.8823527,32.3692881 31.7498965,31.25 30.352941,31.25 C28.9559855,31.25 27.8235292,32.3692881 27.8235292,33.75 C27.8235292,35.1307119 28.9559855,36.25 30.352941,36.25 Z M34.7288233,38.75 C35.4273011,39.9477676 36.975935,40.3591059 38.1877939,39.66875 C39.3996528,38.9783941 39.8158305,37.4477676 39.1173527,36.25 C38.4188749,35.0522324 36.8702411,34.6408941 35.6583821,35.33125 C34.4465232,36.0216059 34.0303455,37.5522324 34.7288233,38.75 Z M34.7288233,43.75 C34.0303455,44.9477676 34.4465232,46.4783941 35.6583821,47.16875 C36.8702411,47.8591059 38.4188749,47.4477676 39.1173527,46.25 C39.8158305,45.0522324 39.3996528,43.5216059 38.1877939,42.83125 C36.975935,42.1408941 35.4273011,42.5522324 34.7288233,43.75 Z M30.352941,46.25 C28.9559855,46.25 27.8235292,47.3692881 27.8235292,48.75 C27.8235292,50.1307119 28.9559855,51.25 30.352941,51.25 C31.7498965,51.25 32.8823527,50.1307119 32.8823527,48.75 C32.8823527,47.3692881 31.7498965,46.25 30.352941,46.25 Z M25.9770587,43.75 C25.5252228,42.9751802 24.6894847,42.4974659 23.7846589,42.4968067 C22.8798331,42.4961488 22.0433841,42.9726461 21.5903942,43.7468074 C21.1374042,44.5209686 21.1366934,45.4751802 21.5885293,46.25 C22.2870071,47.4477675 23.8356409,47.8591058 25.0474998,47.1687499 C26.2593587,46.478394 26.6755364,44.9477675 25.9770587,43.75 Z M25.9770587,38.75 C26.4288946,37.9751802 26.4281837,37.0209686 25.9751938,36.2468074 C25.5222039,35.4726461 24.6857549,34.9961488 23.7809291,34.9968067 C22.8761032,34.9974659 22.0403652,35.4751802 21.5885293,36.25 C20.8900516,37.4477675 21.3062292,38.978394 22.5180881,39.6687499 C23.729947,40.3591058 25.2785809,39.9477675 25.9770587,38.75 Z" id="Shape"></path>
        </g>
    </g>
</svg>